<svg width="100" height="24" fill="none" xmlns="http://www.w3.org/2000/svg"><path d="M6.298 1.5c2.584 0 4.592.717 6.025 2.15 1.45 1.417 2.175 3.45 2.175 6.1 0 2.65-.725 4.692-2.175 6.125C10.89 17.292 8.882 18 6.298 18H.473V1.5h5.825zm0 14.225c1.75 0 3.084-.517 4-1.55.934-1.05 1.4-2.525 1.4-4.425s-.466-3.367-1.4-4.4c-.916-1.05-2.25-1.575-4-1.575h-3.15v11.95h3.15zM19.344 3.4c-.583 0-1.033-.142-1.35-.425-.3-.3-.45-.717-.45-1.25s.15-.942.45-1.225c.317-.283.767-.425 1.35-.425.567 0 1 .142 1.3.425.317.283.475.692.475 1.225 0 .533-.158.95-.475 1.25-.3.283-.733.425-1.3.425zm1.325 2.1V18h-2.675V5.5h2.675zm11.235 10.55c1.267 0 2.25.283 2.95.85.7.55 1.05 1.317 1.05 2.3 0 .883-.275 1.633-.825 2.25-.55.633-1.3 1.108-2.25 1.425-.95.333-2.025.5-3.225.5-2.066 0-3.591-.317-4.575-.95-.966-.633-1.45-1.425-1.45-2.375 0-.567.167-1.075.5-1.525.334-.45.884-.758 1.65-.925-.466-.2-.833-.475-1.1-.825-.266-.367-.4-.833-.4-1.4 0-.55.159-1.033.475-1.45.317-.433.784-.758 1.4-.975-1.316-.75-1.975-1.908-1.975-3.475 0-1.267.492-2.283 1.475-3.05.984-.783 2.284-1.175 3.9-1.175 1.05 0 1.975.167 2.775.5.134-.833.5-1.517 1.1-2.05.6-.55 1.359-.825 2.275-.825h.2l.425 2.1a1.552 1.552 0 00-.3-.025c-1.433 0-2.233.525-2.4 1.575.884.767 1.325 1.75 1.325 2.95 0 1.283-.491 2.308-1.475 3.075-.983.767-2.291 1.15-3.925 1.15a9.313 9.313 0 01-1.875-.175c-.45.117-.775.3-.975.55a1.192 1.192 0 00-.275.75c0 .817.592 1.225 1.775 1.225h3.75zm-2.4-8.925c-.766 0-1.408.217-1.925.65-.5.417-.75.983-.75 1.7s.25 1.292.75 1.725c.517.433 1.159.65 1.925.65.784 0 1.425-.217 1.925-.65.517-.433.775-1.008.775-1.725 0-.717-.258-1.283-.775-1.7-.5-.433-1.141-.65-1.925-.65zm.1 14.25c1.367 0 2.375-.183 3.025-.55.667-.367 1-.8 1-1.3 0-.383-.158-.692-.475-.925-.3-.233-.85-.35-1.65-.35H27.48c-.483 0-.883.125-1.2.375-.3.25-.45.575-.45.975 0 .55.334.983 1 1.3.667.317 1.592.475 2.775.475zM39.705 3.4c-.583 0-1.033-.142-1.35-.425-.3-.3-.45-.717-.45-1.25s.15-.942.45-1.225c.317-.283.767-.425 1.35-.425.567 0 1 .142 1.3.425.317.283.475.692.475 1.225 0 .533-.158.95-.475 1.25-.3.283-.733.425-1.3.425zm1.325 2.1V18h-2.675V5.5h2.675z" fill="#FF5300"/><path d="M50.716 18.25c-1.25 0-2.35-.258-3.3-.775a5.545 5.545 0 01-2.2-2.225c-.534-.983-.8-2.15-.8-3.5s.258-2.508.775-3.475c.533-.983 1.258-1.733 2.175-2.25.933-.517 2-.775 3.2-.775 1.216 0 2.25.25 3.1.75.85.5 1.5 1.183 1.95 2.05.45.867.675 1.85.675 2.95 0 .317-.009.608-.025.875a5.892 5.892 0 01-.075.675h-9.15c.116 1.167.491 2.058 1.125 2.675.65.6 1.483.9 2.5.9.833 0 1.508-.158 2.025-.475a3.362 3.362 0 001.225-1.325l2.125 1c-.434.917-1.125 1.633-2.075 2.15-.934.517-2.017.775-3.25.775zm-.2-10.875c-.917 0-1.675.267-2.275.8-.584.533-.959 1.308-1.125 2.325h6.575c-.067-1-.384-1.767-.95-2.3-.567-.55-1.309-.825-2.225-.825zM59.669 18V5.5h2.375l.125 2.15c.416-.833.991-1.442 1.725-1.825.75-.383 1.583-.575 2.5-.575.883 0 1.675.175 2.375.525.716.333 1.283.85 1.7 1.55.416.683.625 1.542.625 2.575V18h-2.675v-7.275c0-1.233-.259-2.083-.775-2.55-.5-.483-1.134-.725-1.9-.725-.55 0-1.084.125-1.6.375-.517.25-.95.667-1.3 1.25-.334.567-.5 1.325-.5 2.275V18h-2.675zM80.547 5.25c1.484 0 2.667.325 3.55.975a5.402 5.402 0 011.9 2.525l-2.525 1c-.216-.767-.566-1.35-1.05-1.75-.466-.417-1.083-.625-1.85-.625-1.116 0-1.991.383-2.625 1.15-.616.75-.925 1.833-.925 3.25 0 1.4.317 2.475.95 3.225.634.75 1.5 1.125 2.6 1.125.867 0 1.55-.208 2.05-.625.517-.417.859-1.017 1.025-1.8l2.425.825c-.35 1.133-.991 2.042-1.925 2.725-.933.667-2.108 1-3.525 1-1.233 0-2.325-.258-3.275-.775a5.543 5.543 0 01-2.2-2.225c-.533-.983-.8-2.15-.8-3.5s.267-2.508.8-3.475c.534-.983 1.267-1.733 2.2-2.25.934-.517 2-.775 3.2-.775zm19.223.25l-5.475 13.975c-.55 1.45-1.175 2.458-1.875 3.025-.7.583-1.6.875-2.7.875a5.82 5.82 0 01-1.675-.225c-.5-.15-.942-.367-1.325-.65l.65-2.075c.6.533 1.325.8 2.175.8.45 0 .85-.117 1.2-.35.366-.233.691-.717.975-1.45l.55-1.35-1.325-3.1-3.9-9.475h3l2.775 7.85.725 2.35.825-2.575L96.995 5.5h2.775z" fill="#fff"/></svg>