<svg width="159" height="38" fill="none" xmlns="http://www.w3.org/2000/svg"><path d="M10.758 3.22c4.036 0 7.161 1.12 9.375 3.36 2.213 2.239 3.32 5.416 3.32 9.53 0 4.114-1.107 7.291-3.32 9.53-2.214 2.24-5.339 3.36-9.375 3.36H.798V3.22h9.96zm-.273 21.483c2.448 0 4.283-.729 5.507-2.187 1.25-1.484 1.875-3.62 1.875-6.406 0-2.786-.625-4.908-1.875-6.367-1.224-1.484-3.06-2.226-5.507-2.226H6.188v17.186h4.297zM30.906 6.658c-2.213 0-3.32-.95-3.32-2.852 0-1.927 1.107-2.89 3.32-2.89 2.214 0 3.32.963 3.32 2.89 0 1.901-1.106 2.852-3.32 2.852zm2.656 2.812V29h-5.351V9.47h5.351zm17.274 15.858c2.109 0 3.736.456 4.882 1.367 1.146.912 1.719 2.188 1.719 3.828 0 1.51-.43 2.774-1.29 3.79-.859 1.015-2.07 1.783-3.632 2.304-1.536.52-3.32.78-5.351.78-3.36 0-5.82-.468-7.382-1.405-1.537-.938-2.305-2.162-2.305-3.672 0-.885.274-1.666.82-2.343.573-.651 1.485-1.107 2.735-1.368-1.745-.65-2.617-1.875-2.617-3.671 0-.886.26-1.667.78-2.344.548-.677 1.29-1.185 2.227-1.523-2.057-1.146-3.086-2.93-3.086-5.351 0-2.058.795-3.672 2.383-4.844 1.588-1.198 3.763-1.797 6.523-1.797 1.563 0 2.969.209 4.219.625.182-1.354.729-2.5 1.64-3.437.912-.963 2.148-1.445 3.71-1.445H57.242l.625 3.828a5.71 5.71 0 00-.703-.04c-.99 0-1.783.196-2.382.587-.6.364-.977.898-1.133 1.601 1.666 1.172 2.5 2.812 2.5 4.922 0 2.03-.808 3.645-2.422 4.843-1.588 1.172-3.75 1.758-6.484 1.758-1.198 0-2.291-.104-3.281-.313-.599.157-1.029.39-1.289.703a1.5 1.5 0 00-.351.977c0 1.094.833 1.64 2.5 1.64h6.015zm-3.594-12.89c-1.041 0-1.9.287-2.578.86-.677.573-1.015 1.367-1.015 2.383 0 1.015.338 1.822 1.015 2.421.677.573 1.536.86 2.578.86 1.016 0 1.862-.287 2.539-.86.677-.599 1.016-1.406 1.016-2.421 0-1.016-.339-1.81-1.016-2.383s-1.523-.86-2.539-.86zm-.039 21.288c2.005 0 3.49-.247 4.453-.742.99-.469 1.484-1.042 1.484-1.719a1.48 1.48 0 00-.586-1.21c-.39-.287-1.093-.43-2.109-.43h-6.601c-.625 0-1.146.156-1.563.469-.39.338-.585.768-.585 1.289 0 .729.481 1.302 1.445 1.718.99.417 2.343.625 4.062.625zM63.367 6.658c-2.213 0-3.32-.95-3.32-2.852 0-1.927 1.107-2.89 3.32-2.89 2.214 0 3.32.963 3.32 2.89 0 1.901-1.106 2.852-3.32 2.852zm2.656 2.812V29h-5.351V9.47h5.351z" fill="#FF5300"/><path d="M80.758 29.39c-3.073 0-5.534-.885-7.383-2.655-1.849-1.797-2.773-4.297-2.773-7.5 0-2.135.417-3.958 1.25-5.468.833-1.51 1.992-2.67 3.476-3.477 1.51-.807 3.23-1.21 5.156-1.21 1.98 0 3.659.403 5.039 1.21a7.902 7.902 0 013.164 3.242c.729 1.354 1.094 2.904 1.094 4.648 0 .521-.014 1.016-.04 1.485-.025.468-.065.885-.117 1.25H75.836c.209 1.51.73 2.643 1.563 3.398.859.729 1.966 1.094 3.32 1.094 1.145 0 2.07-.222 2.773-.665a4.492 4.492 0 001.64-1.835l4.258 1.64c-.625 1.537-1.719 2.734-3.281 3.594-1.563.833-3.346 1.25-5.351 1.25zm-.313-16.366c-2.526 0-4.049 1.394-4.57 4.18h8.789c-.157-1.354-.6-2.383-1.328-3.086-.703-.729-1.667-1.094-2.89-1.094zM94.315 29V9.47h4.805l.195 3.672c.6-1.354 1.471-2.37 2.617-3.047 1.172-.677 2.513-1.016 4.023-1.016 2.031 0 3.711.6 5.039 1.797 1.328 1.172 1.992 2.943 1.992 5.312V29h-5.351V17.712c0-1.667-.339-2.813-1.016-3.438-.651-.65-1.484-.976-2.499-.976-.73 0-1.446.182-2.149.547-.677.338-1.237.898-1.679 1.68-.417.78-.625 1.822-.625 3.124V29h-5.352zm33.051-19.92c2.604 0 4.622.56 6.054 1.679 1.458 1.12 2.422 2.474 2.89 4.062l-4.999 1.797c-.521-2.37-1.81-3.554-3.867-3.554-1.484 0-2.643.52-3.476 1.562-.808 1.042-1.211 2.59-1.211 4.648 0 2.083.416 3.633 1.25 4.648.859.99 2.018 1.485 3.476 1.485 2.265 0 3.619-1.16 4.062-3.477l4.844 1.563c-.443 1.744-1.433 3.163-2.969 4.257-1.51 1.094-3.476 1.64-5.898 1.64-2.031 0-3.815-.403-5.351-1.21a8.533 8.533 0 01-3.516-3.477c-.833-1.51-1.25-3.333-1.25-5.468s.417-3.958 1.25-5.468c.86-1.51 2.031-2.67 3.516-3.477 1.51-.807 3.242-1.21 5.195-1.21zm31.043.39l-7.89 20.74c-.625 1.772-1.328 3.178-2.109 4.22-.756 1.067-1.641 1.822-2.656 2.265-.99.468-2.175.703-3.555.703-1.015 0-1.953-.117-2.812-.352-.834-.234-1.563-.56-2.188-.976l1.133-3.867c.912.729 2.057 1.094 3.437 1.094.756 0 1.394-.157 1.914-.47.521-.312.964-.937 1.328-1.874l.664-1.68-2.148-5.077-5.976-14.726h5.937l3.711 11.718 1.015 3.906 1.211-4.14L152.98 9.47h5.429z" fill="#fff"/></svg>