<svg width="20" height="20" fill="none" xmlns="http://www.w3.org/2000/svg"><path fill-rule="evenodd" clip-rule="evenodd" d="M10 4a1 1 0 001-1V1a1 1 0 10-2 0v2a1 1 0 001 1zm0 8c-1.103 0-2-.897-2-2s.897-2 2-2 2 .897 2 2-.897 2-2 2zm0-6c-2.206 0-4 1.794-4 4s1.794 4 4 4 4-1.794 4-4-1.794-4-4-4zm7 3h2a1 1 0 110 2h-2a1 1 0 110-2zM4 10a1 1 0 00-1-1H1a1 1 0 100 2h2a1 1 0 001-1zM2.807 3.053a1.002 1.002 0 011.414-.025l1.439 1.39a1 1 0 01-1.39 1.44l-1.44-1.39a1 1 0 01-.023-1.415zm12.228 3.085a1 1 0 00.695-.28l1.44-1.39a1 1 0 00-1.39-1.44l-1.44 1.39a1 1 0 00.695 1.72zM9 17a1 1 0 112 0v2a1 1 0 11-2 0v-2zm6.73-2.857a1 1 0 00-1.39 1.439l1.439 1.39c.195.188.445.28.695.28a1 1 0 00.695-1.719l-1.439-1.39zm-12.899 1.39l1.439-1.39a1 1 0 011.39 1.439l-1.439 1.39a.996.996 0 01-.695.28 1 1 0 01-.695-1.719z" fill="#fff"/></svg>