<svg width="632" height="333" fill="none" xmlns="http://www.w3.org/2000/svg"><g opacity=".1"><path opacity=".1" d="M276.454 218.443c3.624 0 6.562-3.865 6.562-8.633 0-4.768-2.938-8.633-6.562-8.633s-6.562 3.865-6.562 8.633c0 4.768 2.938 8.633 6.562 8.633z" fill="#3F3D56"/><path opacity=".1" d="M281.649 172.874a10.472 10.472 0 001.373-5.279c0-4.768-2.941-8.633-6.568-8.633s-6.585 3.877-6.585 8.645a10.468 10.468 0 001.372 5.278 10.821 10.821 0 000 10.551 10.821 10.821 0 000 10.551 10.425 10.425 0 00-1.372 5.278c0 4.763 2.94 8.633 6.562 8.633 3.621 0 6.568-3.87 6.568-8.633a10.436 10.436 0 00-1.373-5.278 10.821 10.821 0 000-10.551 10.821 10.821 0 000-10.551l.023-.011z" fill="#3F3D56"/><path opacity=".1" d="M276.454 165.689c3.624 0 6.562-3.865 6.562-8.633 0-4.768-2.938-8.633-6.562-8.633s-6.562 3.865-6.562 8.633c0 4.768 2.938 8.633 6.562 8.633z" fill="#3F3D56"/><path opacity=".1" d="M276.454 155.138c3.624 0 6.562-3.865 6.562-8.633 0-4.767-2.938-8.632-6.562-8.632s-6.562 3.865-6.562 8.632c0 4.768 2.938 8.633 6.562 8.633z" fill="#3F3D56"/><path opacity=".1" d="M251.889 74.296a30.842 30.842 0 01-2.445-3.616l17.242-2.845-18.649.14a31.794 31.794 0 01-.577-25.03l25.021 13.042-23.066-17.046a31.547 31.547 0 018.521-9.696 31.374 31.374 0 0111.674-5.452 31.298 31.298 0 0112.87-.295 31.362 31.362 0 0111.909 4.911 31.526 31.526 0 018.952 9.296 31.702 31.702 0 014.495 12.12c.65 4.309.406 8.706-.716 12.915a31.663 31.663 0 01-5.807 11.544 31.678 31.678 0 013.587 5.76l-22.391 11.715 23.867-8.048a31.744 31.744 0 011.207 15.478 31.665 31.665 0 01-6.276 14.187 31.666 31.666 0 016.549 16.15 31.732 31.732 0 01-2.978 17.181 31.545 31.545 0 01-11.598 12.974 31.326 31.326 0 01-16.682 4.814c-5.9 0-11.681-1.668-16.682-4.814a31.545 31.545 0 01-11.598-12.974 31.732 31.732 0 01-2.978-17.181 31.666 31.666 0 016.549-16.15 31.683 31.683 0 01-6.73-19.532c0-7.084 2.37-13.963 6.73-19.531v-.017z" fill="#FF5300"/><path opacity=".1" d="M308.037 93.827a31.537 31.537 0 01-6.73 19.531 31.67 31.67 0 016.549 16.15 31.73 31.73 0 01-2.978 17.181 31.542 31.542 0 01-11.598 12.975 31.335 31.335 0 01-16.682 4.814c-5.9 0-11.681-1.669-16.682-4.814a31.542 31.542 0 01-11.598-12.975 31.73 31.73 0 01-2.978-17.181 31.67 31.67 0 016.549-16.15c-4.215-5.377 56.148-23.077 56.148-19.531z" fill="#000"/></g><g opacity=".1"><path opacity=".1" d="M353.388 196.959c2.711 0 4.908-2.887 4.908-6.449 0-3.561-2.197-6.448-4.908-6.448-2.71 0-4.907 2.887-4.907 6.448 0 3.562 2.197 6.449 4.907 6.449z" fill="#3F3D56"/><path opacity=".1" d="M357.263 162.914a7.8 7.8 0 001.021-3.94c0-3.563-2.197-6.454-4.901-6.454-2.705 0-4.908 2.896-4.908 6.454a7.76 7.76 0 001.027 3.94 8.082 8.082 0 000 7.885 8.082 8.082 0 000 7.886 7.758 7.758 0 00-1.027 3.94c0 3.563 2.197 6.454 4.908 6.454 2.71 0 4.901-2.897 4.901-6.454a7.8 7.8 0 00-1.021-3.94 8.137 8.137 0 000-7.886 8.137 8.137 0 000-7.885z" fill="#3F3D56"/><path opacity=".1" d="M353.388 157.537c2.711 0 4.908-2.887 4.908-6.449 0-3.561-2.197-6.448-4.908-6.448-2.71 0-4.907 2.887-4.907 6.448 0 3.562 2.197 6.449 4.907 6.449z" fill="#3F3D56"/><path opacity=".1" d="M353.388 149.651c2.711 0 4.908-2.887 4.908-6.448 0-3.562-2.197-6.449-4.908-6.449-2.71 0-4.907 2.887-4.907 6.449 0 3.561 2.197 6.448 4.907 6.448z" fill="#3F3D56"/><path opacity=".1" d="M335.028 89.244a22.683 22.683 0 01-1.828-2.7l12.888-2.126-13.937.104a23.75 23.75 0 01-.45-18.709l18.7 9.751-17.247-12.746a23.564 23.564 0 016.382-7.188 23.445 23.445 0 018.707-4.029 23.392 23.392 0 019.585-.2 23.444 23.444 0 018.866 3.664 23.573 23.573 0 016.672 6.916 23.715 23.715 0 012.87 18.638 23.655 23.655 0 01-4.28 8.62 23.875 23.875 0 012.682 4.304l-16.723 8.731 17.836-6.014a23.738 23.738 0 01.901 11.566 23.678 23.678 0 01-4.69 10.602 23.667 23.667 0 014.904 12.069 23.706 23.706 0 01-2.22 12.843 23.58 23.58 0 01-8.667 9.702 23.41 23.41 0 01-12.469 3.599 23.411 23.411 0 01-12.47-3.599 23.57 23.57 0 01-8.666-9.702 23.688 23.688 0 01-2.22-12.843 23.657 23.657 0 014.903-12.069 23.676 23.676 0 01-5.029-14.595 23.675 23.675 0 015.029-14.595l-.029.006z" fill="#FF5300"/><path opacity=".1" d="M376.985 103.839a23.573 23.573 0 01-5.029 14.595 23.663 23.663 0 014.904 12.069 23.71 23.71 0 01-2.22 12.843 23.564 23.564 0 01-8.667 9.701 23.409 23.409 0 01-12.469 3.6 23.412 23.412 0 01-12.47-3.6 23.561 23.561 0 01-8.666-9.701 23.7 23.7 0 012.683-24.912c-3.16-4.016 41.934-17.243 41.934-14.595z" fill="#000"/></g><g opacity=".1"><path opacity=".1" d="M535.539 194.323c2.71 0 4.908-2.888 4.908-6.449 0-3.562-2.198-6.449-4.908-6.449-2.71 0-4.907 2.887-4.907 6.449 0 3.561 2.197 6.449 4.907 6.449z" fill="#3F3D56"/><path opacity=".1" d="M531.664 160.277a7.81 7.81 0 01-1.02-3.94c0-3.563 2.197-6.454 4.901-6.454 2.705 0 4.907 2.897 4.907 6.454a7.747 7.747 0 01-1.026 3.94 8.082 8.082 0 010 7.886 8.078 8.078 0 010 7.885 7.75 7.75 0 011.026 3.94c0 3.563-2.197 6.455-4.907 6.455s-4.901-2.897-4.901-6.455a7.81 7.81 0 011.02-3.94 8.149 8.149 0 010-7.885 8.149 8.149 0 010-7.886z" fill="#3F3D56"/><path opacity=".1" d="M535.539 154.901c2.71 0 4.908-2.887 4.908-6.449 0-3.561-2.198-6.449-4.908-6.449-2.71 0-4.907 2.888-4.907 6.449 0 3.562 2.197 6.449 4.907 6.449z" fill="#3F3D56"/><path opacity=".1" d="M535.539 147.015c2.71 0 4.908-2.887 4.908-6.449 0-3.561-2.198-6.448-4.908-6.448-2.71 0-4.907 2.887-4.907 6.448 0 3.562 2.197 6.449 4.907 6.449z" fill="#3F3D56"/><path opacity=".1" d="M553.9 86.608a22.547 22.547 0 001.827-2.7L542.84 81.78l13.937.105a23.751 23.751 0 00.45-18.709l-18.701 9.751 17.248-12.746a23.577 23.577 0 00-6.382-7.188 23.445 23.445 0 00-8.707-4.03 23.392 23.392 0 00-9.585-.198 23.444 23.444 0 00-8.866 3.663 23.572 23.572 0 00-6.672 6.916 23.715 23.715 0 00-2.87 18.637 23.667 23.667 0 004.279 8.62 23.926 23.926 0 00-2.681 4.305l16.723 8.731-17.801-6.008A23.715 23.715 0 00517 115.797a23.702 23.702 0 00-2.683 24.913 23.561 23.561 0 008.666 9.701 23.412 23.412 0 0012.47 3.6c4.41 0 8.732-1.248 12.469-3.6a23.564 23.564 0 008.667-9.701 23.711 23.711 0 002.22-12.844 23.67 23.67 0 00-4.904-12.069 23.673 23.673 0 005.029-14.594 23.675 23.675 0 00-5.029-14.595h-.005z" fill="#FF5300"/><path opacity=".1" d="M511.943 101.202a23.576 23.576 0 005.028 14.595 23.702 23.702 0 00-2.683 24.913 23.568 23.568 0 008.666 9.701 23.415 23.415 0 0012.47 3.6c4.41 0 8.732-1.248 12.47-3.6a23.568 23.568 0 008.666-9.701 23.702 23.702 0 00-2.683-24.913c3.16-4.015-41.934-17.242-41.934-14.595z" fill="#000"/></g><g opacity=".1"><path opacity=".1" d="M98.86 194.323c2.71 0 4.907-2.888 4.907-6.449 0-3.562-2.197-6.449-4.907-6.449s-4.908 2.887-4.908 6.449c0 3.561 2.197 6.449 4.907 6.449z" fill="#3F3D56"/><path opacity=".1" d="M102.74 160.277a7.81 7.81 0 001.021-3.94c0-3.563-2.191-6.454-4.901-6.454s-4.908 2.897-4.908 6.454a7.809 7.809 0 001.027 3.94 8.083 8.083 0 000 7.886 8.08 8.08 0 000 7.885 7.814 7.814 0 00-1.027 3.94c0 3.563 2.197 6.455 4.907 6.455 2.711 0 4.902-2.897 4.902-6.455a7.81 7.81 0 00-1.021-3.94 8.137 8.137 0 000-7.885 8.137 8.137 0 000-7.886z" fill="#3F3D56"/><path opacity=".1" d="M98.86 154.901c2.71 0 4.907-2.887 4.907-6.449 0-3.561-2.197-6.449-4.907-6.449s-4.908 2.888-4.908 6.449c0 3.562 2.197 6.449 4.907 6.449z" fill="#3F3D56"/><path opacity=".1" d="M98.86 147.015c2.71 0 4.907-2.887 4.907-6.449 0-3.561-2.197-6.448-4.907-6.448s-4.908 2.887-4.908 6.448c0 3.562 2.197 6.449 4.907 6.449z" fill="#3F3D56"/><path opacity=".1" d="M80.5 86.608a23.304 23.304 0 01-1.829-2.7L91.56 81.78l-13.937.105a23.758 23.758 0 01-.45-18.709l18.7 9.751-17.247-12.746a23.574 23.574 0 016.382-7.188 23.448 23.448 0 018.707-4.03 23.39 23.39 0 019.585-.198 23.444 23.444 0 018.866 3.663 23.572 23.572 0 016.672 6.916 23.715 23.715 0 012.87 18.637 23.654 23.654 0 01-4.28 8.62 23.266 23.266 0 012.682 4.305l-16.723 8.731 17.836-6.014a23.738 23.738 0 01.901 11.566 23.678 23.678 0 01-4.69 10.602 23.663 23.663 0 014.904 12.069 23.71 23.71 0 01-2.22 12.843 23.57 23.57 0 01-8.667 9.701 23.412 23.412 0 01-12.47 3.6c-4.41 0-8.731-1.248-12.469-3.6a23.565 23.565 0 01-8.666-9.701 23.702 23.702 0 012.683-24.912 23.677 23.677 0 01-5.029-14.595 23.676 23.676 0 015.03-14.595l-.03.006z" fill="#FF5300"/><path opacity=".1" d="M122.456 101.202a23.571 23.571 0 01-5.029 14.595 23.67 23.67 0 014.904 12.069 23.711 23.711 0 01-2.22 12.844 23.564 23.564 0 01-8.667 9.701 23.41 23.41 0 01-12.47 3.6c-4.41 0-8.73-1.248-12.469-3.6a23.565 23.565 0 01-8.666-9.701 23.705 23.705 0 012.683-24.913c-3.171-4.015 41.934-17.242 41.934-14.595z" fill="#000"/></g><path opacity=".1" d="M310.634 291.226c130.068 0 235.509-2.405 235.509-5.371 0-2.966-105.441-5.371-235.509-5.371-130.068 0-235.51 2.405-235.51 5.371 0 2.966 105.442 5.371 235.51 5.371zM310.634 333c130.068 0 235.509-2.405 235.509-5.371 0-2.967-105.441-5.371-235.509-5.371-130.068 0-235.51 2.404-235.51 5.371 0 2.966 105.442 5.371 235.51 5.371zM310.634 202.903c130.068 0 235.509-2.405 235.509-5.371 0-2.966-105.441-5.371-235.509-5.371-130.068 0-235.51 2.405-235.51 5.371 0 2.966 105.442 5.371 235.51 5.371zM310.634 247.065c130.068 0 235.509-2.405 235.509-5.371 0-2.967-105.441-5.371-235.509-5.371-130.068 0-235.51 2.404-235.51 5.371 0 2.966 105.442 5.371 235.51 5.371zM466.383 63.947a10.508 10.508 0 00-6.113.673 8.986 8.986 0 01-7.346 0 10.27 10.27 0 00-8.65.168 5.305 5.305 0 01-2.485.625c-3.506 0-6.418-3.545-7.024-8.221a6.87 6.87 0 001.73-1.895c2.053-3.325 5.23-5.463 8.806-5.463 3.575 0 6.712 2.108 8.765 5.4a6.742 6.742 0 002.488 2.374 6.71 6.71 0 003.33.835h.092c2.82-.029 5.236 2.22 6.407 5.505z" fill="#FF5300"/><path opacity=".1" d="M477.056 49.26l-5.662 3.604 3.459-6.28a5.574 5.574 0 00-3.425-1.223h-.092a6.502 6.502 0 01-1.153-.087l-1.949 1.222.824-1.506a6.804 6.804 0 01-3.362-2.561l-3.459 2.19 2.168-3.963c-2.007-2.422-4.717-3.905-7.693-3.905-3.575 0-6.752 2.132-8.811 5.458a6.598 6.598 0 01-2.486 2.363 6.555 6.555 0 01-3.332.789h-.19c-3.945 0-7.139 4.49-7.139 10.029s3.194 10.035 7.139 10.035a5.395 5.395 0 002.485-.626 10.26 10.26 0 018.65-.173 8.931 8.931 0 007.346 0 10.29 10.29 0 018.569.168c.758.398 1.6.609 2.456.614 3.945 0 7.139-4.496 7.139-10.035a12.754 12.754 0 00-1.482-6.113zM225.617 60.813a7.37 7.37 0 00-4.284.47 6.275 6.275 0 01-5.138 0 7.168 7.168 0 00-6.049.121 3.805 3.805 0 01-1.73.435c-2.451 0-4.492-2.48-4.919-5.754a4.81 4.81 0 001.228-1.326c1.436-2.318 3.662-3.824 6.165-3.824 2.502 0 4.699 1.477 6.135 3.777a4.737 4.737 0 001.744 1.663 4.704 4.704 0 002.333.585h.063c1.938-.011 3.628 1.565 4.452 3.853z" fill="#FF5300"/><path opacity=".1" d="M233.085 50.54l-3.962 2.527 2.405-4.398a3.883 3.883 0 00-2.393-.857h-.07a4.288 4.288 0 01-.818-.064l-1.344.858.577-1.055a4.786 4.786 0 01-2.353-1.79l-2.405 1.53 1.523-2.77a7.06 7.06 0 00-2.386-1.98 7.014 7.014 0 00-3-.76c-2.503 0-4.729 1.494-6.164 3.823a4.627 4.627 0 01-1.743 1.655 4.594 4.594 0 01-2.334.553h-.133c-2.762 0-4.999 3.14-4.999 7.022s2.237 7.022 4.999 7.022a3.733 3.733 0 001.73-.44 7.184 7.184 0 016.043-.116 6.38 6.38 0 002.589.58 6.321 6.321 0 002.555-.545 7.2 7.2 0 015.997.116c.534.28 1.127.428 1.73.428 2.756 0 4.994-3.146 4.994-7.022a8.922 8.922 0 00-1.038-4.316zM155.457 106.243a7.36 7.36 0 014.279.47 6.279 6.279 0 005.143 0 7.185 7.185 0 016.049.116 3.722 3.722 0 001.73.44c2.451 0 4.492-2.486 4.913-5.759a4.703 4.703 0 01-1.222-1.327c-1.442-2.318-3.668-3.818-6.165-3.818-2.496 0-4.699 1.471-6.141 3.777a4.728 4.728 0 01-1.741 1.662 4.701 4.701 0 01-2.33.586h-.063c-1.944.012-3.639 1.582-4.452 3.853z" fill="#FF5300"/><path opacity=".1" d="M147.984 95.988l3.967 2.526-2.41-4.392a3.901 3.901 0 012.399-.863h.063c.276.004.552-.015.825-.058l1.343.852-.577-1.049a4.78 4.78 0 002.347-1.79l2.405 1.53-1.499-2.776a7.031 7.031 0 015.386-2.735c2.496 0 4.728 1.495 6.164 3.824a4.62 4.62 0 001.74 1.654 4.597 4.597 0 002.331.554h.138c2.757 0 4.994 3.146 4.994 7.022 0 3.876-2.237 7.022-4.994 7.022a3.72 3.72 0 01-1.73-.434 7.17 7.17 0 00-6.049-.122c-.81.376-1.69.574-2.583.58a6.325 6.325 0 01-2.56-.545 7.19 7.19 0 00-5.991.116 3.73 3.73 0 01-1.73.429c-2.763 0-5-3.141-5-7.023a8.973 8.973 0 011.021-4.322z" fill="#FF5300"/><path d="M383.069 284.053c1.505-2.804-.202-6.234-2.162-8.731-1.961-2.498-4.36-5.099-4.308-8.28.075-4.571 4.908-7.277 8.765-9.699a42.874 42.874 0 007.871-6.373 11.662 11.662 0 002.417-3.256c.801-1.785.778-3.824.726-5.794a409.888 409.888 0 00-.963-19.561" stroke="#3F3D56" stroke-width="4" stroke-miterlimit="10"/><path d="M402.756 222.035a7.161 7.161 0 00-1.03-3.379 7.106 7.106 0 00-2.517-2.467l-1.591 3.157.052-3.824a7.069 7.069 0 00-4.401.128 7.108 7.108 0 00-3.479 2.711 7.155 7.155 0 00.291 8.406 7.087 7.087 0 003.657 2.462 7.065 7.065 0 004.399-.179 7.104 7.104 0 003.448-2.751 7.162 7.162 0 001.171-4.264zM390.093 270.31a7.118 7.118 0 01-3.277 3.184 7.063 7.063 0 01-4.528.525 7.085 7.085 0 01-3.913-2.35 7.146 7.146 0 01-1.683-4.256 6.982 6.982 0 01.461-2.897 7.13 7.13 0 012.627-3.308 7.08 7.08 0 018.046.045 7.139 7.139 0 012.59 3.338l-4.435 3.627 4.879-1.159a7.136 7.136 0 01-.767 3.251zM386.587 256.463a7.082 7.082 0 01-4.808-1.587 7.16 7.16 0 01-1.507-9.379 7.101 7.101 0 014.066-3.027l-.04 2.938 1.608-3.199a7.085 7.085 0 015.113 1.852 7.155 7.155 0 01.469 10.079 7.09 7.09 0 01-4.919 2.323h.018zM403.823 244.938a7.073 7.073 0 01-5.818-2.555 7.17 7.17 0 01-1.457-6.209 7.145 7.145 0 011.461-2.931 7.088 7.088 0 015.82-2.55c1.1.058 2.172.373 3.131.919l-1.252 3.477 2.555-2.538a7.14 7.14 0 012.097 3.557 7.17 7.17 0 01-.22 4.129 7.12 7.12 0 01-2.463 3.312 7.07 7.07 0 01-3.877 1.383l.023.006z" fill="#FF5300"/><path opacity=".1" d="M401.799 223.935c-1.638.18-3.23.69-4.879.794-1.649.104-3.46-.296-4.486-1.576a22.797 22.797 0 01-1.315-2.318 5.053 5.053 0 00-1.787-1.691 7.17 7.17 0 00-.274 5.878 7.143 7.143 0 001.67 2.5 7.081 7.081 0 005.518 1.972 7.084 7.084 0 005.116-2.867 7.158 7.158 0 001.232-2.744c-.259.006-.53.023-.795.052zM403.823 244.938a7.064 7.064 0 01-3.536-.758 7.111 7.111 0 01-2.706-2.409 7.157 7.157 0 01-.511-7.007 5.25 5.25 0 011.424 1.437c.425.812.894 1.6 1.407 2.358 1.108 1.304 2.999 1.738 4.712 1.651 1.712-.086 3.367-.579 5.074-.724.236 0 .473-.035.715-.04a7.138 7.138 0 01-2.374 3.854 7.075 7.075 0 01-4.205 1.638zM386.587 256.462a7.059 7.059 0 01-3.502-.743 7.107 7.107 0 01-2.696-2.365 7.164 7.164 0 01-.612-6.933 5.777 5.777 0 011.505 1.449c.465.832.979 1.634 1.539 2.404 1.194 1.339 3.212 1.814 5.023 1.739 1.811-.076 3.46-.47 5.19-.58a7.153 7.153 0 01-2.434 3.537 7.085 7.085 0 01-4.013 1.492zM390.093 270.31a7.118 7.118 0 01-3.277 3.184 7.063 7.063 0 01-4.528.525 7.09 7.09 0 01-3.913-2.35 7.146 7.146 0 01-1.683-4.256 6.982 6.982 0 01.461-2.897 7.085 7.085 0 011.557 1.396c.675.823 1.119 1.738 1.903 2.532 1.447 1.431 3.794 2.022 5.876 2.074a29.737 29.737 0 003.604-.208z" fill="#000"/><path d="M93.52 242.337c1.505-2.804-.202-6.234-2.163-8.732-1.96-2.497-4.359-5.11-4.307-8.279.075-4.572 4.907-7.277 8.765-9.699a42.846 42.846 0 007.871-6.374 11.64 11.64 0 002.416-3.256c.802-1.784.779-3.824.727-5.794a420.549 420.549 0 00-.963-19.56" stroke="#3F3D56" stroke-width="4" stroke-miterlimit="10"/><path d="M113.206 180.318a7.142 7.142 0 00-3.546-5.846l-1.592 3.158.052-3.824a7.066 7.066 0 00-4.4.128 7.105 7.105 0 00-3.48 2.711 7.16 7.16 0 00.291 8.406 7.073 7.073 0 008.057 2.283 7.108 7.108 0 003.448-2.751 7.155 7.155 0 001.17-4.265zM100.543 228.594a7.111 7.111 0 01-3.276 3.184 7.071 7.071 0 01-8.442-1.825 7.15 7.15 0 01-1.683-4.256 6.982 6.982 0 01.461-2.897 7.13 7.13 0 012.628-3.308 7.078 7.078 0 018.045.045 7.13 7.13 0 012.59 3.338l-4.434 3.627 4.878-1.159a7.11 7.11 0 01-.767 3.251zM97.037 214.746a7.075 7.075 0 01-4.807-1.586 7.162 7.162 0 01-1.508-9.38 7.104 7.104 0 014.067-3.026l-.04 2.937 1.608-3.198a7.09 7.09 0 015.112 1.852 7.146 7.146 0 012.312 4.942 7.16 7.16 0 01-1.843 5.136 7.09 7.09 0 01-4.918 2.323h.017zM114.273 203.221a7.051 7.051 0 01-3.209-.587 7.1 7.1 0 01-2.609-1.967 7.155 7.155 0 01.004-9.141 7.096 7.096 0 012.61-1.965 7.07 7.07 0 016.341.334l-1.251 3.477 2.554-2.538a7.16 7.16 0 01-.585 10.999 7.088 7.088 0 01-3.878 1.383l.023.005z" fill="#FF5300"/><path opacity=".1" d="M112.249 182.219c-1.638.179-3.229.689-4.878.794-1.65.104-3.46-.296-4.487-1.576a23.09 23.09 0 01-1.314-2.318 5.076 5.076 0 00-1.788-1.692 7.16 7.16 0 001.396 8.378 7.09 7.09 0 005.519 1.972 7.077 7.077 0 005.115-2.867 7.141 7.141 0 001.233-2.743c-.26.005-.531.023-.796.052zM114.273 203.222a7.074 7.074 0 01-3.536-.758 7.108 7.108 0 01-2.705-2.409 7.156 7.156 0 01-.511-7.007c.562.382 1.046.87 1.424 1.437.424.812.894 1.599 1.407 2.358 1.107 1.304 2.998 1.738 4.711 1.651 1.713-.087 3.368-.579 5.075-.724.236 0 .472-.035.715-.041a7.143 7.143 0 01-2.374 3.854 7.073 7.073 0 01-4.206 1.639zM97.037 214.746a7.071 7.071 0 01-3.502-.743 7.107 7.107 0 01-2.696-2.365 7.155 7.155 0 01-.612-6.933 5.776 5.776 0 011.505 1.449c.465.831.98 1.634 1.54 2.404 1.194 1.338 3.212 1.814 5.022 1.738 1.811-.075 3.46-.469 5.19-.579a7.133 7.133 0 01-2.434 3.536 7.089 7.089 0 01-4.013 1.493zM100.543 228.594a7.11 7.11 0 01-3.276 3.184 7.071 7.071 0 01-8.442-1.825 7.15 7.15 0 01-1.683-4.256 6.982 6.982 0 01.461-2.897c.585.386 1.11.856 1.557 1.396.675.823 1.119 1.738 1.903 2.532 1.448 1.431 3.795 2.022 5.876 2.074a29.725 29.725 0 003.604-.208z" fill="#000"/><path d="M265.555 194.612c-1.505-2.799.202-6.229 2.169-8.726 1.966-2.497 4.353-5.098 4.301-8.279-.069-4.578-4.901-7.278-8.765-9.699a42.725 42.725 0 01-7.865-6.374 11.433 11.433 0 01-2.422-3.25c-.796-1.79-.773-3.824-.727-5.794.173-6.524.494-13.044.963-19.56" stroke="#3F3D56" stroke-width="4" stroke-miterlimit="10"/><path d="M245.875 132.6a7.138 7.138 0 013.54-5.847l1.592 3.158-.046-3.824a7.255 7.255 0 012.335-.284 7.08 7.08 0 013.883 1.385 7.135 7.135 0 012.464 3.319 7.172 7.172 0 01.213 4.135 7.14 7.14 0 01-2.109 3.557 7.084 7.084 0 01-3.72 1.781 7.063 7.063 0 01-4.078-.596 7.107 7.107 0 01-3.061-2.771 7.158 7.158 0 01-1.013-4.013zM258.532 180.875a7.12 7.12 0 003.454 3.269 7.069 7.069 0 004.733.351 7.092 7.092 0 003.895-2.723 7.149 7.149 0 001.318-4.58 7.151 7.151 0 00-1.849-4.391 7.073 7.073 0 00-8.847-1.326 7.12 7.12 0 00-3.044 3.658l4.434 3.627-4.878-1.159a7.123 7.123 0 00.784 3.274zM262.038 167.027a7.074 7.074 0 004.81-1.583 7.16 7.16 0 001.512-9.382 7.1 7.1 0 00-4.067-3.027l.034 2.937-1.609-3.198a7.079 7.079 0 00-5.115 1.839 7.143 7.143 0 00-2.018 7.368 7.13 7.13 0 002.43 3.551 7.066 7.066 0 004.023 1.495zM244.808 155.491a7.06 7.06 0 003.208-.589 7.099 7.099 0 002.607-1.969 7.151 7.151 0 001.453-6.209 7.135 7.135 0 00-4.071-4.894 7.075 7.075 0 00-6.34.335l1.257 3.477-2.583-2.486a7.102 7.102 0 00-2.307 4.925 6.94 6.94 0 00.179 1.964 7.131 7.131 0 002.391 3.832 7.075 7.075 0 004.206 1.614z" fill="#FF5300"/><path opacity=".1" d="M246.832 134.5c1.637.18 3.229.69 4.872.794 1.644.104 3.46-.296 4.492-1.576.481-.746.918-1.52 1.309-2.318a5.094 5.094 0 011.794-1.692 7.156 7.156 0 01.276 5.883 7.137 7.137 0 01-1.671 2.5 7.093 7.093 0 01-5.523 1.972 7.073 7.073 0 01-2.866-.882 7.11 7.11 0 01-2.249-1.992 7.152 7.152 0 01-1.23-2.747c.259.006.525.029.796.058zM244.808 155.492a7.077 7.077 0 003.533-.762 7.113 7.113 0 002.704-2.409 7.16 7.16 0 00.515-7.004 5.3 5.3 0 00-1.43 1.437c-.424.813-.894 1.6-1.407 2.358-1.101 1.304-2.993 1.739-4.705 1.652-1.713-.087-3.368-.58-5.075-.725-.236 0-.478-.034-.715-.04a7.138 7.138 0 002.373 3.855 7.083 7.083 0 004.207 1.638zM262.038 167.027a7.066 7.066 0 003.504-.739 7.1 7.1 0 002.698-2.366 7.146 7.146 0 00.608-6.936 5.676 5.676 0 00-1.499 1.449 23.909 23.909 0 01-1.54 2.404c-1.199 1.339-3.212 1.814-5.028 1.738-1.817-.075-3.46-.469-5.19-.579a7.126 7.126 0 002.431 3.54 7.074 7.074 0 004.016 1.489zM258.532 180.874a7.105 7.105 0 003.956 3.448 7.065 7.065 0 005.233-.217 7.115 7.115 0 003.661-3.763 7.162 7.162 0 00.095-5.261 6.83 6.83 0 00-1.557 1.396c-.674.823-1.153 1.738-1.902 2.532-1.454 1.431-3.795 2.022-5.882 2.074a30.774 30.774 0 01-3.604-.209z" fill="#000"/><path d="M449.625 195.916c31.835 0 57.641-25.93 57.641-57.916 0-31.987-25.806-57.916-57.641-57.916-31.834 0-57.641 25.929-57.641 57.916 0 31.986 25.807 57.916 57.641 57.916z" fill="#3F3D56"/><path d="M474.369 152.936c-2.007-2.016-6.833-5.058-9.226-6.193-2.762-1.333-3.777-1.31-5.732.11-1.626 1.159-2.681 2.277-4.55 1.865-1.868-.411-5.57-3.215-9.151-6.802-3.581-3.586-6.361-7.283-6.758-9.189-.398-1.906.697-2.943 1.862-4.577 1.407-1.964 1.448-2.984.11-5.759-1.154-2.405-4.146-7.243-6.17-9.27-2.024-2.028-2.463-1.582-3.57-1.159a20.595 20.595 0 00-3.269 1.738c-2.007 1.35-3.131 2.474-3.921 4.166-.79 1.692-1.684 4.832 2.912 13.053a72.791 72.791 0 0012.743 17.075 72.614 72.614 0 0017.052 12.828c8.176 4.635 11.308 3.714 12.991 2.926 1.684-.788 2.803-1.906 4.141-3.94a20.624 20.624 0 001.73-3.285c.38-1.113.83-1.565-1.194-3.587z" fill="#FF5300"/><path opacity=".1" d="M449.625 80.09a57.468 57.468 0 00-32.047 9.752 57.884 57.884 0 00-21.251 26.001 58.196 58.196 0 00-3.288 33.482 58.027 58.027 0 0015.783 29.673 57.577 57.577 0 0029.532 15.858 57.406 57.406 0 0033.323-3.304 57.729 57.729 0 0025.878-21.352 58.144 58.144 0 009.706-32.2c-.008-15.357-6.083-30.082-16.89-40.94a57.525 57.525 0 00-40.746-16.97zm0 108.126a49.817 49.817 0 01-27.766-8.463 50.174 50.174 0 01-18.407-22.537 50.437 50.437 0 01-2.844-29.013 50.28 50.28 0 0113.678-25.711 49.902 49.902 0 0125.589-13.743 49.757 49.757 0 0128.876 2.857 50.026 50.026 0 0122.429 18.495 50.431 50.431 0 014.619 47.115 50.235 50.235 0 01-10.834 16.292 49.96 49.96 0 01-16.214 10.885 49.769 49.769 0 01-19.126 3.823z" fill="#000"/><path d="M317.199 283.885c31.835 0 57.641-25.93 57.641-57.916 0-31.986-25.806-57.916-57.641-57.916-31.834 0-57.641 25.93-57.641 57.916 0 31.986 25.807 57.916 57.641 57.916z" fill="#3F3D56"/><path d="M349.982 208.471l-17.259 17.643a.304.304 0 00-.071.348c.016.039.04.074.071.104l12.109 12.937a2.104 2.104 0 01-.316 3.218 2.079 2.079 0 01-1.154.357 2.092 2.092 0 01-1.476-.614l-12.047-12.891a.325.325 0 00-.461 0l-2.935 2.978a12.92 12.92 0 01-4.221 2.885 12.85 12.85 0 01-5.005 1.014 13.133 13.133 0 01-9.388-4.009l-2.82-2.897a.325.325 0 00-.461 0l-12.017 12.862a2.081 2.081 0 01-3.401-.678 2.105 2.105 0 010-1.604c.105-.254.26-.485.454-.679l12.063-12.908a.348.348 0 000-.452l-17.259-17.643a.32.32 0 00-.346-.07.33.33 0 00-.143.118.331.331 0 00-.053.178v35.302a5.186 5.186 0 001.507 3.638 5.128 5.128 0 003.62 1.513h56.436a5.13 5.13 0 003.62-1.513 5.181 5.181 0 001.506-3.638v-35.273a.32.32 0 00-.197-.309.316.316 0 00-.356.083z" fill="#FF5300"/><path d="M317.199 232.261a8.717 8.717 0 006.297-2.607l25.136-25.708a5.002 5.002 0 00-3.171-1.159h-56.477a4.97 4.97 0 00-3.171 1.159l25.141 25.708a8.668 8.668 0 006.245 2.607z" fill="#FF5300"/><path opacity=".1" d="M316.473 168.059a57.471 57.471 0 00-32.048 9.752 57.88 57.88 0 00-21.25 26.001 58.197 58.197 0 00-3.289 33.482 58.027 58.027 0 0015.783 29.673 57.573 57.573 0 0029.532 15.858 57.405 57.405 0 0033.323-3.304 57.723 57.723 0 0025.878-21.352 58.131 58.131 0 009.706-32.2c-.007-15.357-6.082-30.082-16.889-40.94a57.522 57.522 0 00-40.746-16.97zm0 108.126a49.807 49.807 0 01-27.766-8.463 50.163 50.163 0 01-18.407-22.536 50.433 50.433 0 01-2.844-29.014 50.29 50.29 0 0113.677-25.711 49.902 49.902 0 0125.59-13.743 49.758 49.758 0 0128.875 2.857 50.031 50.031 0 0122.43 18.495 50.392 50.392 0 018.422 27.899 50.335 50.335 0 01-14.638 35.508 49.857 49.857 0 01-35.339 14.708z" fill="#000"/><path d="M180.403 240.633c31.834 0 57.641-25.93 57.641-57.916 0-31.986-25.807-57.916-57.641-57.916-31.835 0-57.642 25.93-57.642 57.916 0 31.986 25.807 57.916 57.642 57.916z" fill="#3F3D56"/><path d="M180.403 155.005l-22.98 53.269 2.145 2.156 20.84-9.236 20.84 9.236 2.145-2.156-22.99-53.269z" fill="#FF5300"/><path opacity=".1" d="M180.403 124.784a57.467 57.467 0 00-32.045 9.75 57.88 57.88 0 00-21.251 25.996 58.196 58.196 0 00-3.293 33.479 58.023 58.023 0 0015.775 29.673 57.579 57.579 0 0029.524 15.865 57.413 57.413 0 0033.321-3.292 57.728 57.728 0 0025.884-21.34 58.138 58.138 0 009.72-32.192c0-15.361-6.071-30.094-16.879-40.959a57.523 57.523 0 00-40.756-16.98zm0 108.126a49.814 49.814 0 01-27.77-8.465 50.166 50.166 0 01-18.407-22.541 50.45 50.45 0 01-2.839-29.017 50.292 50.292 0 0113.686-25.711 49.91 49.91 0 0125.597-13.737 49.761 49.761 0 0128.878 2.87 50.025 50.025 0 0122.423 18.508 50.375 50.375 0 018.409 27.906 50.336 50.336 0 01-14.64 35.504 49.858 49.858 0 01-35.337 14.706v-.023z" fill="#000"/><path d="M454.93 255.657a206.012 206.012 0 00-1.608-3.836 11.385 11.385 0 00-1.967-3.412 3.603 3.603 0 00-1.153-.87 4.937 4.937 0 00-1.505-.301 11.975 11.975 0 00-2.364-.064 11.232 11.232 0 01-.992-.353 8.232 8.232 0 004.328-2.822 8.298 8.298 0 001.807-4.855v-.353a8.28 8.28 0 00-2.382-5.849 8.178 8.178 0 00-5.8-2.442 8.038 8.038 0 00-4.296 1.234 7.673 7.673 0 00-5.053.576 7.729 7.729 0 00-3.597 3.613 9.573 9.573 0 00-2.216 3.252 9.63 9.63 0 00-.725 3.874v.365c.15 4.502 3.045 8.112 6.701 8.477-.391.176-.75.417-1.061.712-1.119 1.084-1.303 2.805-1.424 4.369l-.087 1.159-1.937.695a.356.356 0 00-.235.289.37.37 0 00.148.343l1.851 1.326v.331c0 .11 0 .249.035.376-.317.28-.562.632-.715 1.026a4.762 4.762 0 00-.168 1.877l.07 1.616a12.767 12.767 0 00.49 3.599c.242.718 1.291 2.45 2.047 2.462-.698 3.187-.882 9.908-.882 9.908-.087.086.155.168.576.237.415 3.198 1.77 12.167 4.175 16.113.379 1.286.681 2.594.905 3.917 0 0 .687 8.523 1.592 11.054.773 2.156 1.384 7.475 1.551 9.016a.884.884 0 00-.64.66c-.456 1.379-3.408 3.477-3.408 3.477a14.316 14.316 0 00-2.549 1.639c-.928.841-.893 1.6 3.23 1.124 7.957-.921 9.318-3.476 9.318-3.476s-.127-.429-.317-.985a10.728 10.728 0 00-1.044-2.474c-.115-.11-.23.075-.369.365-.6-3.697-.782-7.45-.542-11.188 0 0 .225-3.917-.911-6.68a12.704 12.704 0 010-4.375c.456-1.842-1.816-10.829-1.816-10.829l-1.304-6.616c.178.226.302.489.364.77l.034.134.035.191c.013.067.045.13.092.179.888 3.708 3.322 13.981 3.322 15.488 0 1.842 2.272 6.448 2.272 6.448s.905 7.602 2.496 10.591c1.211 2.277 1.24 5.615 1.182 7.086 0 0-.271 1.895-.726 2.353a5.59 5.59 0 00-.859 1.5l-.052.11s-.681 1.385-.225 1.617c1.733.683 3.608.92 5.455.689 0 0 .911-1.158.911-1.61a7.344 7.344 0 00-.104-.823 112.383 112.383 0 00-.484-2.822c.19-.741-.577-2.804-.577-2.804l-.23-6.449a29.909 29.909 0 00-1.592-12.903s-1.153-4.142-.905-5.295c.248-1.153-.456-13.361-.456-13.361l-.069-.174a13.268 13.268 0 01.069-2.59c.225-2.763-.68-8.523-.911-8.749a7.608 7.608 0 01-.323-1.906c.052-.481.208-1.889.421-3.638a64.803 64.803 0 006.701-.58.832.832 0 00.576-.232.81.81 0 00.133-.469c.265-3.47-.998-6.842-2.307-10.052zm-4.572 7.306c.236-1.651.49-3.251.743-4.438l.035.104a32.449 32.449 0 011.096 3.65c-.606.278-1.232.507-1.874.684z" fill="url(#paint0_linear)"/><path d="M432.695 281.614s1.361 12.3 4.308 17.08c.378 1.271.681 2.563.905 3.87 0 0 .68 8.425 1.586 10.928.905 2.503 1.585 9.34 1.585 9.34s3.172 3.638 4.308.683a48.21 48.21 0 01-.68-11.843s.224-3.87-.906-6.605a12.4 12.4 0 010-4.322c.45-1.825-1.816-10.701-1.816-10.701l-1.811-8.882-7.479.452z" fill="#BE6F72"/><path d="M446.973 325.793s-1.361 2.503-9.29 3.412c-4.117.47-4.146-.278-3.218-1.112a14.331 14.331 0 012.538-1.623s2.946-2.045 3.396-3.412c.45-1.367 2.041-.226 2.041-.226 2.267 3.413 2.722-.916 3.172-.458.451.764.802 1.584 1.044 2.439.19.551.317.98.317.98z" fill="#FF6F61"/><path opacity=".1" d="M446.973 325.793s-1.361 2.503-9.29 3.412c-4.117.47-4.146-.278-3.218-1.112.646.411 1.949.579 4.573-.481 3.777-1.553 6.516-2.451 7.618-2.799.19.551.317.98.317.98zM444.707 311.672s.224-3.87-.906-6.605a12.4 12.4 0 010-4.322c.45-1.825-1.816-10.701-1.816-10.701l-1.811-8.882-1.568.092 1.793 8.79s2.266 8.876 1.816 10.701a12.449 12.449 0 000 4.322c1.154 2.735.906 6.605.906 6.605a48.21 48.21 0 00.68 11.843 1.997 1.997 0 01-.657.939c.842.382 1.73.365 2.243-.939a48.21 48.21 0 01-.68-11.843z" fill="#000"/><path d="M443.23 231.635a8.044 8.044 0 00-4.278 1.223 7.664 7.664 0 00-5.045.554 7.716 7.716 0 00-3.605 3.588 9.434 9.434 0 00-2.209 3.211 9.48 9.48 0 00-.726 3.835c0 4.844 3.246 8.766 7.248 8.766 2.884 0 5.409-2.063 6.568-5.046a7.953 7.953 0 002.042.266 8.14 8.14 0 005.769-2.401 8.22 8.22 0 002.39-5.797c0-2.175-.86-4.26-2.39-5.797a8.137 8.137 0 00-5.769-2.402h.005z" fill="#3F3D56"/><path d="M449.919 282.755l.681 1.819s.68 12.069.45 13.21c-.231 1.142.911 5.215.911 5.215a29.287 29.287 0 011.586 12.746l.224 6.374s.906 2.503.456 2.96c-.45.458-3.869-.405-3.869-.405s.455-4.78-1.154-7.741c-1.608-2.96-2.491-10.475-2.491-10.475s-2.266-4.554-2.266-6.374c0-1.819-3.627-16.622-3.627-16.622l9.099-.707z" fill="#BE6F72"/><path d="M432.24 282.529s.23-8.198 1.153-10.701a17.08 17.08 0 001.009-3.633s13.718 2.491 14.854 1.582c0 0 .225 3.186.456 3.412.231.226 1.153 5.922.905 8.656-.248 2.735 0 2.729 0 2.729s-9.295 1.368-9.52 0c-.225-1.367-.906-1.361-.906-1.361s-8.401-.255-7.951-.684z" fill="#3F3D56"/><g opacity=".1" fill="#000"><path opacity=".1" d="M439.719 282.529s-5.732-.156-7.462-.469v.469c-.45.452 7.934.684 7.934.684a.576.576 0 01.312.128c-.306-.812-.784-.812-.784-.812zM449.694 273.189c-.23-.225-.455-3.412-.455-3.412a.975.975 0 01-.386.139c.08.962.236 2.439.386 2.59.15.15 1.153 5.921.905 8.656-.248 2.735 0 2.729 0 2.729s-7.352 1.083-9.134.359c0 .099.052.209.069.325.225 1.367 9.521 0 9.521 0s-.231 0 0-2.729c.23-2.729-.681-8.425-.906-8.657z"/></g><path d="M442.227 245.981c.195.438.492.824.865 1.124.24.179.518.3.813.353-.507.296-1.061.516-1.568.811-.799.54-1.568 1.12-2.307 1.739-.755.61-1.68.97-2.647 1.031a3.262 3.262 0 00.369-3.239 3.029 3.029 0 01-.403-1.124c0-.655.576-1.159 1.113-1.506a42 42 0 011.326-.864c.352-.22.882-.683 1.326-.666.444.018.496.411.577.817.114.529.294 1.041.536 1.524z" fill="#BE6F72"/><path opacity=".1" d="M442.227 245.981c.195.438.492.824.865 1.124.24.179.518.3.813.353-.507.296-1.061.516-1.568.811-.799.54-1.568 1.12-2.307 1.739-.755.61-1.68.97-2.647 1.031a3.262 3.262 0 00.369-3.239 3.029 3.029 0 01-.403-1.124c0-.655.576-1.159 1.113-1.506a42 42 0 011.326-.864c.352-.22.882-.683 1.326-.666.444.018.496.411.577.817.114.529.294 1.041.536 1.524z" fill="#000"/><path d="M447.538 259.417c2.879 0 5.213-2.345 5.213-5.237 0-2.893-2.334-5.238-5.213-5.238s-5.213 2.345-5.213 5.238c0 2.892 2.334 5.237 5.213 5.237z" fill="#BE6F72"/><path d="M454.902 328.521c0 .458-.906 1.594-.906 1.594a11.17 11.17 0 01-5.437-.684c-.456-.226.224-1.593.224-1.593l.052-.11a5.531 5.531 0 01.86-1.484c.449-.452.72-2.317.72-2.317 1.407-2.318 3.904 1.002 3.904 1.002s.317 1.738.485 2.793c.057.376.098.684.098.799z" fill="#FF6F61"/><path opacity=".1" d="M454.902 328.521c0 .458-.906 1.593-.906 1.593a11.157 11.157 0 01-5.437-.683c-.456-.226.224-1.594.224-1.594l.052-.11a10.91 10.91 0 004.936 1.02l1.033-1.037c.057.388.098.695.098.811z" fill="#000"/><path d="M437.112 248.368c2.816 0 5.098-2.293 5.098-5.122 0-2.828-2.282-5.121-5.098-5.121-2.815 0-5.097 2.293-5.097 5.121 0 2.829 2.282 5.122 5.097 5.122zM433.001 253.49c-1.119 1.072-1.303 2.769-1.419 4.316l-.173 2.266c-.062.61-.076 1.224-.04 1.836 0 .377.092.759.127 1.159.034.4.046.904.052 1.362v3.349a3.956 3.956 0 00.369 2.01 1.36 1.36 0 001.73.626c.358-.278.61-.67.715-1.113a17.36 17.36 0 001.153-4.241c.046-.504.052-1.008.098-1.512.046-.504.133-1.031.207-1.541.323-2.132.468-4.288.612-6.437.04-.638.611-3.146-.219-3.424-.404-.134-1.24.283-1.627.422a4.571 4.571 0 00-1.585.922z" fill="#BE6F72"/><path opacity=".1" d="M433.001 253.49c-1.119 1.072-1.303 2.769-1.419 4.316l-.173 2.266c-.062.61-.076 1.224-.04 1.836 0 .377.092.759.127 1.159.034.4.046.904.052 1.362v3.349a3.956 3.956 0 00.369 2.01 1.36 1.36 0 001.73.626c.358-.278.61-.67.715-1.113a17.36 17.36 0 001.153-4.241c.046-.504.052-1.008.098-1.512.046-.504.133-1.031.207-1.541.323-2.132.468-4.288.612-6.437.04-.638.611-3.146-.219-3.424-.404-.134-1.24.283-1.627.422a4.571 4.571 0 00-1.585.922z" fill="#000"/><path d="M443.57 246.549s-3.851 2.961-6.118 3.644c0 0-1.343 1.541-1.574 1.912-.231.371-.692 4.462-1.153 5.377-.461.915-1.586 2.961 0 5.006 0 0 .45 2.051.225 2.735-.225.683-1.05 3.186-.3 3.302.75.116 3.022 1.704 5.057 1.252 2.036-.452 9.636 1.738 9.636 1.738s1.257-11.733 2.168-13.807l-2.041-.684s-5.663-3.412-2.267-8.65c-.005 0-3.188-.684-3.633-1.825z" fill="#FF6F61"/><path d="M429.506 260.263l4.683 3.331a.342.342 0 00.409 0l1.269-.956a.343.343 0 00.091-.122.353.353 0 000-.3.352.352 0 00-.091-.122l-3.604-3.216a.345.345 0 00-.352-.069l-2.313.834a.358.358 0 00-.233.282.36.36 0 00.141.338z" fill="#3F3D56"/><path d="M431.081 270.298a12.655 12.655 0 01-.491-3.552l-.069-1.605a4.668 4.668 0 01.167-1.854 3.023 3.023 0 011.944-1.709c.86-.24 1.76-.305 2.646-.191.12 0 .237.032.341.093.09.084.154.192.184.313a2.104 2.104 0 01.104 1.674 1.722 1.722 0 01-.531.55c-.628.452-1.36.754-1.954 1.246a.71.71 0 00-.266.336.804.804 0 000 .365c.074.319.174.631.3.933a.92.92 0 00.26.394c.109.093.253.127.369.214.248.203.767.47.738.788-.087 1.159-.779 2.457-1.05 3.604-.519 2.242-2.358-.62-2.692-1.599z" fill="#BE6F72"/><g opacity=".1" fill="#000"><path opacity=".1" d="M438.363 269.777h-.126c.489.095.992.095 1.482 0h.144a5.164 5.164 0 00-1.5 0zM450.26 257.366c-.813 1.837-2.013 11.785-2.226 13.761.796.208 1.32.359 1.32.359s1.246-11.704 2.157-13.778l-1.251-.342z"/></g><path d="M447.717 254.342c.042.229.13.446.258.64.127.195.293.361.486.49a9.98 9.98 0 011.32 1.344 9.538 9.538 0 011.309 2.636 32.295 32.295 0 011.09 3.604c-2.883 1.344-6.159 1.28-9.226 2.167a7.355 7.355 0 00-3.46 2.057 4.816 4.816 0 00-1.275 3.771c.005.08.029.158.07.226.05.057.112.101.182.13a.49.49 0 00.221.033 3.446 3.446 0 002.116-.73 10.095 10.095 0 001.621-1.6 2.61 2.61 0 011.153-.857c1.667-.51 3.46-.481 5.19-.51a65.214 65.214 0 007.733-.614.621.621 0 00.692-.695c.253-3.419-1.009-6.756-2.307-9.925a170.27 170.27 0 00-1.603-3.795 11.233 11.233 0 00-1.961-3.372 3.453 3.453 0 00-1.153-.858 4.854 4.854 0 00-1.545-.29 10.941 10.941 0 00-2.532-.046 5.455 5.455 0 00-.242 1.315c.046 1.565.727 3.031 1.396 4.444.086.215.334.226.467.435z" fill="#BE6F72"/><path opacity=".1" d="M438.485 257.273a4.256 4.256 0 00-.577 2.214c.001.307.05.612.144.904.158.409.405.778.723 1.079.318.301.7.526 1.117.659" stroke="#000" stroke-miterlimit="10"/><path d="M441.42 238.24a2.635 2.635 0 00-.836.133c-.756-1.158-2.532-1.958-4.614-1.958-2.756 0-4.987 1.431-4.987 3.192 0 1.762 2.231 3.187 4.987 3.187a6.992 6.992 0 002.993-.637 2.72 2.72 0 002.296 1.537 2.713 2.713 0 002.45-1.275 2.734 2.734 0 00.076-2.771 2.715 2.715 0 00-2.377-1.408h.012z" fill="#3F3D56"/><path opacity=".1" d="M441.645 243.02a2.71 2.71 0 01-2.445-1.547 6.996 6.996 0 01-2.993.638c-2.751 0-4.982-1.426-4.982-3.187a1.888 1.888 0 010-.319 2.179 2.179 0 00-.254 1.003c0 1.738 2.232 3.186 4.988 3.186a6.98 6.98 0 002.993-.637c.248.517.653.943 1.156 1.216a2.703 2.703 0 003.156-.419c.415-.394.696-.91.803-1.475a2.703 2.703 0 01-2.422 1.541z" fill="#000"/><path opacity=".1" d="M430.308 238.345a7.718 7.718 0 013.605-3.589 7.668 7.668 0 015.044-.554 8.128 8.128 0 0111.045 2.391 8.23 8.23 0 011.365 3.901v-.683a8.215 8.215 0 00-1.13-4.143 8.177 8.177 0 00-3.06-2.999 8.129 8.129 0 00-8.248.189 7.67 7.67 0 00-5.045.554 7.713 7.713 0 00-3.605 3.589 9.463 9.463 0 00-2.935 7.045v.684a9.285 9.285 0 012.964-6.385z" fill="#000"/><path d="M482.298 240.083c1.505-2.799-.202-6.234-2.168-8.732-1.967-2.497-4.354-5.092-4.302-8.279.069-4.571 4.901-7.271 8.765-9.699a42.686 42.686 0 007.865-6.373 11.555 11.555 0 002.422-3.251c.796-1.79.773-3.824.727-5.794a420.006 420.006 0 00-.963-19.56" stroke="#3F3D56" stroke-width="4" stroke-miterlimit="10"/><path d="M501.979 178.047a7.146 7.146 0 00-1.027-3.375 7.109 7.109 0 00-2.514-2.465l-1.591 3.158.046-3.824a6.94 6.94 0 00-2.336-.284 7.086 7.086 0 00-3.884 1.385 7.133 7.133 0 00-2.463 3.321 7.164 7.164 0 00-.212 4.135 7.136 7.136 0 002.111 3.557 7.071 7.071 0 007.799 1.181 7.106 7.106 0 003.06-2.774 7.16 7.16 0 001.011-4.015zM489.321 226.328a7.111 7.111 0 01-3.455 3.268 7.069 7.069 0 01-4.731.35 7.097 7.097 0 01-3.895-2.723 7.16 7.16 0 01.531-8.97 7.09 7.09 0 014.188-2.24 7.066 7.066 0 014.657.912 7.12 7.12 0 013.046 3.656l-4.435 3.626 4.879-1.158a7.132 7.132 0 01-.785 3.279zM485.815 212.475a7.075 7.075 0 01-4.81-1.583 7.14 7.14 0 01-2.538-4.401 7.162 7.162 0 011.026-4.981 7.101 7.101 0 014.068-3.027l-.035 2.937 1.609-3.192a7.077 7.077 0 015.11 1.855 7.148 7.148 0 012.311 4.941 7.136 7.136 0 01-4.069 6.788 7.071 7.071 0 01-2.689.669l.017-.006zM503.046 200.957a7.078 7.078 0 01-5.816-2.559 7.151 7.151 0 01-1.453-6.209 7.147 7.147 0 011.461-2.93 7.076 7.076 0 018.95-1.628l-1.257 3.476 2.583-2.491a7.075 7.075 0 011.643 2.231c.396.845.621 1.76.664 2.693a6.9 6.9 0 01-.179 1.964 7.133 7.133 0 01-2.391 3.835 7.08 7.08 0 01-4.205 1.618z" fill="#FF5300"/><path opacity=".1" d="M501.027 179.948c-1.637.185-3.235.695-4.878.799-1.644.105-3.46-.295-4.492-1.581a22.19 22.19 0 01-1.309-2.318 5.12 5.12 0 00-1.788-1.692 7.16 7.16 0 001.395 8.383 7.093 7.093 0 002.549 1.585 7.06 7.06 0 005.84-.495 7.122 7.122 0 003.479-4.739 11.83 11.83 0 00-.796.058zM503.045 200.956a7.065 7.065 0 01-3.533-.761 7.103 7.103 0 01-2.703-2.409 7.165 7.165 0 01-.516-7.004c.564.38 1.05.866 1.43 1.431.422.814.891 1.601 1.407 2.358 1.101 1.31 2.993 1.739 4.705 1.658 1.713-.082 3.368-.58 5.075-.725.236 0 .479-.04.715-.046a7.136 7.136 0 01-2.372 3.857 7.074 7.074 0 01-4.208 1.641zM485.815 212.475a7.076 7.076 0 01-6.209-3.108 7.16 7.16 0 01-.601-6.945 5.87 5.87 0 011.5 1.449c.576.782.893 1.686 1.539 2.404 1.2 1.345 3.212 1.814 5.028 1.773 1.817-.04 3.46-.475 5.19-.608a7.13 7.13 0 01-2.431 3.542 7.08 7.08 0 01-4.016 1.493zM489.321 226.328a7.106 7.106 0 01-3.96 3.387 7.072 7.072 0 01-5.196-.231 7.127 7.127 0 01-3.646-3.726 7.172 7.172 0 01-.143-5.224 6.95 6.95 0 011.557 1.397c.68.828 1.124 1.738 1.903 2.537 1.453 1.431 3.794 2.017 5.881 2.074a30.779 30.779 0 003.604-.214z" fill="#000"/><path d="M504.916 328.15c1.505-2.798-.202-6.234-2.168-8.731-1.967-2.497-4.354-5.093-4.302-8.28.069-4.571 4.902-7.271 8.765-9.699a42.612 42.612 0 007.865-6.373 11.532 11.532 0 002.422-3.25c.796-1.791.773-3.824.727-5.794a409.372 409.372 0 00-.963-19.561" stroke="#3F3D56" stroke-width="4" stroke-miterlimit="10"/><path d="M524.597 266.115a7.14 7.14 0 00-1.027-3.375 7.103 7.103 0 00-2.514-2.466l-1.591 3.158.046-3.824a6.927 6.927 0 00-2.307-.284 7.08 7.08 0 00-3.884 1.386 7.13 7.13 0 00-2.463 3.32 7.164 7.164 0 00-.212 4.135 7.132 7.132 0 002.111 3.557 7.08 7.08 0 003.721 1.779 7.055 7.055 0 004.078-.598 7.1 7.1 0 003.06-2.774 7.16 7.16 0 001.011-4.014h-.029zM511.94 314.396a7.113 7.113 0 01-3.455 3.267 7.066 7.066 0 01-4.732.351 7.097 7.097 0 01-3.895-2.723 7.152 7.152 0 01-1.317-4.58 7.144 7.144 0 011.848-4.39 7.075 7.075 0 018.846-1.329 7.13 7.13 0 013.045 3.656l-4.435 3.627 4.879-1.158a7.119 7.119 0 01-.784 3.279zM508.434 300.543a7.081 7.081 0 01-4.811-1.583 7.145 7.145 0 01-2.538-4.401 7.168 7.168 0 011.026-4.981 7.107 7.107 0 014.068-3.028l-.035 2.938 1.609-3.192a7.081 7.081 0 015.111 1.855 7.156 7.156 0 011.899 7.693 7.138 7.138 0 01-1.429 2.384 7.086 7.086 0 01-4.918 2.321l.018-.006zM525.664 289.024a7.057 7.057 0 01-3.208-.589 7.102 7.102 0 01-2.608-1.969 7.155 7.155 0 01.008-9.139 7.076 7.076 0 018.95-1.629l-1.257 3.477 2.584-2.492a7.117 7.117 0 012.306 4.925 6.864 6.864 0 01-.179 1.964 7.135 7.135 0 01-2.39 3.835 7.082 7.082 0 01-4.206 1.617z" fill="#FF5300"/><path opacity=".1" d="M523.645 268.016c-1.637.185-3.235.695-4.878.799-1.643.105-3.46-.295-4.492-1.582a22.254 22.254 0 01-1.309-2.317 5.11 5.11 0 00-1.788-1.692 7.167 7.167 0 00-.276 5.882 7.14 7.14 0 001.671 2.501 7.093 7.093 0 002.549 1.585 7.062 7.062 0 005.84-.495 7.11 7.11 0 002.249-1.992 7.16 7.16 0 001.23-2.747c-.265.011-.53.029-.796.058zM525.664 289.024a7.088 7.088 0 01-6.237-3.171 7.16 7.16 0 01-.516-7.003c.565.379 1.05.865 1.43 1.431.422.813.892 1.601 1.407 2.358 1.102 1.309 2.993 1.738 4.706 1.657 1.712-.081 3.367-.579 5.074-.724.237 0 .479-.041.715-.047a7.142 7.142 0 01-2.372 3.858 7.084 7.084 0 01-4.207 1.641zM508.434 300.542a7.06 7.06 0 01-3.509-.739 7.093 7.093 0 01-2.701-2.369 7.159 7.159 0 01-.601-6.944c.582.389 1.09.879 1.5 1.448.576.782.893 1.686 1.539 2.405 1.2 1.344 3.212 1.813 5.029 1.773 1.816-.041 3.46-.475 5.189-.609a7.129 7.129 0 01-2.43 3.542 7.079 7.079 0 01-4.016 1.493zM511.94 314.395a7.117 7.117 0 01-3.961 3.388 7.075 7.075 0 01-5.195-.232 7.118 7.118 0 01-3.647-3.726 7.17 7.17 0 01-.143-5.223 6.945 6.945 0 011.557 1.396c.68.828 1.153 1.738 1.903 2.538 1.453 1.431 3.794 2.016 5.882 2.074a30.806 30.806 0 003.604-.215z" fill="#000"/><path d="M275.635 246.404a5.685 5.685 0 00-2.255-4.589 6.677 6.677 0 00-1.583-4.284 6.622 6.622 0 00-3.958-2.251 6.668 6.668 0 00-1.546-3.071 6.61 6.61 0 00-2.866-1.883 5.581 5.581 0 00-.818-.191h-.975a6.47 6.47 0 00-4.151 1.635 6.534 6.534 0 00-2.123 3.939c-2.024-.47-3.875.139-4.215 1.425-.085.341-.065.701.058 1.031.346.997 1.47 1.953 2.975 2.422l.196.058.294.075h.064a5.142 5.142 0 00-.485 2.196 5.093 5.093 0 00.726 2.644 5.048 5.048 0 001.99 1.875l-.132.082c-.188.171-.337.38-.439.614a9.192 9.192 0 00-.847 2.051c-.144.614-.167 1.251-.346 1.86-.335 1.118-1.188 2.062-1.286 3.227-.046.521.04 1.159-.329 1.495a1.776 1.776 0 01-.294.208 2.39 2.39 0 00-.64.678 2.261 2.261 0 01-.45.649c-.334.249-.882.226-1.043.614-.162.388.259.846.161 1.269-.098.423-.456.504-.715.742a2.582 2.582 0 00-.617 1.158 3.772 3.772 0 01-3.114-.799c.147.374.255.762.323 1.159a5.039 5.039 0 00-1.678-.846 5.302 5.302 0 01-1.788-1.333l.958-.133-4.227-6.484-1.252-.26 1.119 2.161a.696.696 0 00-.38.458c-.06.24-.074.49-.041.735.058.586.154 1.166.289 1.739l.322 1.518c.029.139.064.284.104.423a3.942 3.942 0 00-1.251.139 10.78 10.78 0 00-2.601-.62 1.432 1.432 0 00-.576 0 1.475 1.475 0 00-.548.446 17.784 17.784 0 00-1.932 2.735c-2.306 3.974-5.311 7.445-8.154 11.037-1.96.8-3.938 1.559-5.916 2.318l-4.256 1.633a6.417 6.417 0 01-2.641.58c-.403 0-.905-.087-1.153.261a2.43 2.43 0 00-.259.579l-.439.046a5.062 5.062 0 00-1.02-1.889.65.65 0 00-.479.371c-.104.191-.167.4-.288.58-.225.336-.623.498-.906.782-.282.284-.461.724-.772 1.014a3.051 3.051 0 01-1.448.579 9.16 9.16 0 00-2.266.863 3.634 3.634 0 01-.836.389 3.138 3.138 0 01-.986.034l-2.249-.168a1.782 1.782 0 00-.605.029 1.157 1.157 0 00-.715 1.159 1.827 1.827 0 00.715 1.246c.389.288.821.513 1.28.666a37.526 37.526 0 005.997 1.785v.457a10.192 10.192 0 004.613 1.101.721.721 0 00.346-.063.766.766 0 00.288-.452c.479-1.438.781-2.928.9-4.439.281-.019.557-.089.813-.208.773-.214 1.545.319 2.347.405.986.111 1.897-.469 2.831-.822l.404-.134a4.418 4.418 0 01-.934.898c-.387.279-.819.487-1.194.777a8.226 8.226 0 01-1.015.788 6.443 6.443 0 01-.778.301 5.102 5.102 0 00-1.113.58 2.25 2.25 0 00-.756.741 1.124 1.124 0 00-.063 1.043 1.099 1.099 0 00.744.522c.304.046.613.046.917 0 1.222-.093 2.439-.203 3.656-.313a9.736 9.736 0 001.528-.221c.265-.063.53-.15.795-.225a7.031 7.031 0 011.39-.209c.136-.011.273.003.404.04.282.093.484.383.772.441.196.025.394-.001.577-.076a12.808 12.808 0 012.705-.289c.397 0 .865-.099 1.049-.47.185-.37-.15-.967-.3-1.46a4.514 4.514 0 01-.127-.961 6.028 6.028 0 00-.669-2.283c-.2-.331-.368-.68-.501-1.043a26.147 26.147 0 004.976-2.538 8.905 8.905 0 012.837-1.373 7.693 7.693 0 013.564.417c2.772.807 5.5 1.763 8.171 2.862 1.274.528 2.543 1.084 3.858 1.484.383.516.846.968 1.372 1.338a6.321 6.321 0 002.97.817c1.39.127 2.785.18 4.18.156a7.013 7.013 0 003.114-.579c.234-.118.453-.263.652-.435a2.576 2.576 0 002.053-.759 4.994 4.994 0 001.562-2.479c.341-1.321.081-2.897.888-3.952.214-.289.496-.521.71-.811.258-.397.387-.865.369-1.338a.259.259 0 01.034-.052c.177-.426.294-.875.346-1.333.099-.36.225-.713.375-1.055.41-1.022.768-2.064 1.073-3.122.208-.704.373-1.42.496-2.144.086-.58.138-1.159.184-1.738.061-.913.238-1.815.525-2.683a21.927 21.927 0 001.211-6.42v-.127a4.28 4.28 0 002.743-1.451 4.314 4.314 0 001.051-2.929 4.59 4.59 0 00-.398-1.872c.51-.887.777-1.895.773-2.92zm-20.632 25.186c.063.226.138.446.213.667-.34-.331-.669-.673-1.009-1.009.133.047.271.087.398.139.133.055.261.123.38.203h.018zm-1.632-1.112c-1.995-1.738-4.302-3.088-6.343-4.774 1.113.55 2.197 1.193 3.269 1.807a97.542 97.542 0 003.87 2.104 3.198 3.198 0 01-.813.863h.017zm.847-4.38l.099-.099v.69l-.537-.186c.149-.126.289-.262.421-.405h.017zm-17.547 4.693a16.549 16.549 0 002.122-3.042c.79 1.385 2.076 2.387 3.166 3.552-1.759-.226-3.523-.418-5.288-.51z" fill="url(#paint1_linear)"/><path d="M239.508 253.918l1.257.255 4.285 6.368-1.886.255-3.656-6.878z" fill="#2F2E41"/><path d="M209.027 279.748a24.79 24.79 0 001.257 3.285 30.974 30.974 0 004.181-1.199 13.28 13.28 0 00-.871-1.159 4.292 4.292 0 00-1.182-.909 3.223 3.223 0 00-1.436 0c-.646-.018-1.297-.006-1.949-.018z" fill="#FBBEBE"/><path d="M212.418 281.446a2.617 2.617 0 01-1.43-1.634 5.283 5.283 0 00-1.09-1.953.622.622 0 00-.485.365c-.103.186-.167.394-.282.58-.231.33-.634.492-.923.77-.288.278-.461.713-.772.997a3.064 3.064 0 01-1.459.579 9.453 9.453 0 00-2.307.852c-.267.16-.551.289-.848.382-.328.05-.663.05-.991 0l-2.272-.162a1.802 1.802 0 00-.577 0 1.103 1.103 0 00-.721 1.159 1.74 1.74 0 00.721 1.228c.395.285.83.508 1.292.661a37.898 37.898 0 006.089 1.738v.452a10.503 10.503 0 004.642 1.083.776.776 0 00.346-.058.76.76 0 00.288-.452c.547-1.6.867-3.269.952-4.959a3.974 3.974 0 00-.098-1.281c-.127-.411.3-.237-.093-.399" fill="#2F2E41"/><path d="M255.989 272.842c-6.735.406-13.39-1.576-20.137-1.785a9.811 9.811 0 00-2.502.157 12.64 12.64 0 00-2.48.967c-3.615 1.692-7.358 3.094-11.094 4.491l-4.296 1.605a6.49 6.49 0 01-2.659.579c-.409 0-.911-.087-1.153.255-.698 1.043-.369 2.567.092 3.737.15.377.404.788.808.829.283-.02.56-.09.818-.209.779-.209 1.557.319 2.365.406.992.104 1.914-.464 2.854-.812 1.557-.579 3.252-.579 4.89-.834 2.739-.458 5.282-1.738 7.658-3.192a8.906 8.906 0 012.854-1.356 7.869 7.869 0 013.593.411 82.122 82.122 0 018.24 2.816 38.267 38.267 0 004.302 1.582c3.195.84 6.574.637 9.647-.58 1.078-.428 2.249-1.158 2.306-2.352.041-.666-.478-1.251-.818-1.825-.22-.365-.444-.73-.681-1.083-1.153-1.681-2.56-3.929-4.607-3.807z" fill="#2F2E41"/><path opacity=".1" d="M255.989 272.842c-6.735.406-13.39-1.576-20.137-1.785a9.811 9.811 0 00-2.502.157 12.64 12.64 0 00-2.48.967c-3.615 1.692-7.358 3.094-11.094 4.491l-4.296 1.605a6.49 6.49 0 01-2.659.579c-.409 0-.911-.087-1.153.255-.698 1.043-.369 2.567.092 3.737.15.377.404.788.808.829.283-.02.56-.09.818-.209.779-.209 1.557.319 2.365.406.992.104 1.914-.464 2.854-.812 1.557-.579 3.252-.579 4.89-.834 2.739-.458 5.282-1.738 7.658-3.192a8.906 8.906 0 012.854-1.356 7.869 7.869 0 013.593.411 82.122 82.122 0 018.24 2.816 38.267 38.267 0 004.302 1.582c3.195.84 6.574.637 9.647-.58 1.078-.428 2.249-1.158 2.306-2.352.041-.666-.478-1.251-.818-1.825-.22-.365-.444-.73-.681-1.083-1.153-1.681-2.56-3.929-4.607-3.807z" fill="#000"/><path d="M221.961 280.061c1.054.359 2.117.691 3.189.996.577-.991 1.73-1.68 1.978-2.816a.273.273 0 000-.15.274.274 0 00-.121-.11 6.007 6.007 0 00-2.503-.736c-.692-.041-1.009.683-1.32 1.193-.121.226-.94 1.733-1.223 1.623z" fill="#FBBEBE"/><path d="M223.437 279.354a2.312 2.312 0 01-1.551-1.026c-.144-.26-.305-.614-.605-.579-.3.035-.398.348-.462.62a17.443 17.443 0 01-.87 3.007 5.641 5.641 0 01-1.863 2.462c-.392.273-.824.475-1.211.765-.32.285-.661.544-1.02.777a6.101 6.101 0 01-.785.289 5.417 5.417 0 00-1.118.58 2.221 2.221 0 00-.767.735 1.06 1.06 0 00-.058 1.026 1.087 1.087 0 00.744.51c.308.046.621.046.928 0 1.229-.087 2.457-.197 3.685-.307a10.529 10.529 0 001.54-.215l.801-.22a6.384 6.384 0 011.401-.208c.138-.013.277.001.41.04.282.093.484.377.778.435.196.019.393-.007.577-.076a12.628 12.628 0 012.727-.283c.404 0 .877-.105 1.062-.464.23-.452-.15-.956-.306-1.443a4.621 4.621 0 01-.127-.944 5.785 5.785 0 00-.675-2.248c-.311-.58-.738-1.217-.519-1.831.109-.195.18-.41.208-.632-.087-.996-2.359-.643-2.924-.77z" fill="#2F2E41"/><path d="M245.892 261.984a5.268 5.268 0 01-2.687-2.677c-.11-.255-.202-.527-.312-.782a5.933 5.933 0 00-1.603-2.242.79.79 0 00-.576-.249.623.623 0 00-.433.469c-.064.236-.08.482-.046.724.059.57.155 1.135.288 1.692l.329 1.495c.044.229.111.452.202.666.14.251.326.473.548.655.3.278.605.545.911.811.176.155.37.289.576.4.322.154.667.256 1.021.301a8.667 8.667 0 013.829 1.483v-1.112a1.48 1.48 0 00-.288-.805 5.113 5.113 0 00-1.759-.829z" fill="#FBBEBE"/><path opacity=".1" d="M245.892 261.984a5.268 5.268 0 01-2.687-2.677c-.11-.255-.202-.527-.312-.782a5.933 5.933 0 00-1.603-2.242.79.79 0 00-.576-.249.623.623 0 00-.433.469c-.064.236-.08.482-.046.724.059.57.155 1.135.288 1.692l.329 1.495c.044.229.111.452.202.666.14.251.326.473.548.655.3.278.605.545.911.811.176.155.37.289.576.4.322.154.667.256 1.021.301a8.667 8.667 0 013.829 1.483v-1.112a1.48 1.48 0 00-.288-.805 5.113 5.113 0 00-1.759-.829z" fill="#000"/><path d="M259.604 250.547c.905 0 1.638-.742 1.638-1.657 0-.916-.733-1.658-1.638-1.658-.904 0-1.637.742-1.637 1.658 0 .915.733 1.657 1.637 1.657z" fill="#2F2E41"/><path d="M258.589 247.893c-.438-.106-.9-.04-1.291.185a1.796 1.796 0 00-.444.609 8.84 8.84 0 00-.854 2.016c-.144.579-.167 1.234-.351 1.831-.335 1.101-1.194 2.033-1.292 3.181-.046.515.04 1.118-.335 1.466-.091.079-.19.151-.294.214a2.227 2.227 0 00-.645.666c-.113.237-.268.45-.456.632-.334.249-.888.226-1.05.579-.161.354.26.834.162 1.252-.098.417-.461.498-.721.73a2.54 2.54 0 00-.623 1.158 3.815 3.815 0 01-3.137-.782c.381 1.162.547 2.383.491 3.604a1.485 1.485 0 01-.289 1.113c1.301.097 2.589.322 3.846.672a2.65 2.65 0 001.679 0 2.82 2.82 0 00.772-.615c.692-.706 1.419-1.477 1.586-2.456.041-.553.051-1.109.029-1.663a9.42 9.42 0 01.421-2.022c.365-1.362.61-2.755.732-4.16.075-.869.825-1.564 1.217-2.318.738-1.466 1.499-2.989 1.551-4.635.023-.533-.161-1.199-.704-1.257z" fill="#2F2E41"/><path opacity=".1" d="M258.589 247.893c-.438-.106-.9-.04-1.291.185a1.796 1.796 0 00-.444.609 8.84 8.84 0 00-.854 2.016c-.144.579-.167 1.234-.351 1.831-.335 1.101-1.194 2.033-1.292 3.181-.046.515.04 1.118-.335 1.466-.091.079-.19.151-.294.214a2.227 2.227 0 00-.645.666c-.113.237-.268.45-.456.632-.334.249-.888.226-1.05.579-.161.354.26.834.162 1.252-.098.417-.461.498-.721.73a2.54 2.54 0 00-.623 1.158 3.815 3.815 0 01-3.137-.782c.381 1.162.547 2.383.491 3.604a1.485 1.485 0 01-.289 1.113c1.301.097 2.589.322 3.846.672a2.65 2.65 0 001.679 0 2.82 2.82 0 00.772-.615c.692-.706 1.419-1.477 1.586-2.456.041-.553.051-1.109.029-1.663a9.42 9.42 0 01.421-2.022c.365-1.362.61-2.755.732-4.16.075-.869.825-1.564 1.217-2.318.738-1.466 1.499-2.989 1.551-4.635.023-.533-.161-1.199-.704-1.257z" fill="#000"/><path d="M257.056 274.267c-1.402-.672-2.428-1.918-3.564-2.99-2.162-2.045-4.809-3.476-7.087-5.405-1.511-1.269-2.883-2.747-4.515-3.813a11.244 11.244 0 00-4.838-1.697 1.278 1.278 0 00-.577 0 1.33 1.33 0 00-.548.434 17.518 17.518 0 00-1.954 2.694c-2.884 4.925-6.984 9.062-10.38 13.639a.868.868 0 00-.167.325.803.803 0 00.127.504l.692 1.355c.386.765 1.009 1.652 1.839 1.501a2.01 2.01 0 00.963-.62l3.102-2.984 3.253-3.123c1.903-1.825 3.84-3.696 5.086-6.037.968 1.692 2.693 2.798 3.869 4.345.45.58.819 1.235 1.222 1.86.641.997 1.373 1.935 2.099 2.897l3.731 4.78a7.158 7.158 0 001.73 1.738c.92.504 1.946.78 2.993.806 1.401.125 2.808.176 4.215.15a7.23 7.23 0 003.143-.579 2.867 2.867 0 001.701-2.544 3.738 3.738 0 00-.536-1.581c-1.35-2.416-3.091-4.456-5.599-5.655z" fill="#2F2E41"/><path d="M260.614 251.311c.697 0 1.262-.57 1.262-1.274 0-.704-.565-1.275-1.262-1.275-.698 0-1.263.571-1.263 1.275s.565 1.274 1.263 1.274z" fill="#E8E8F0"/><path d="M260.337 249.081c.281.569.331 1.226.138 1.831a7.427 7.427 0 01-.813 1.686 8.006 8.006 0 01-1.055 1.506c1.949.093 3.834-.672 5.547-1.599 1.384-.747 2.762-1.668 3.5-3.065a1.598 1.598 0 01-1.291-.243 4.61 4.61 0 01-.986-.921l-.975-1.101a4.461 4.461 0 01-.577-.794 2.2 2.2 0 01-.259-1.28 7.441 7.441 0 01-1.292 1.077c-.697.458-1.464.788-2.168 1.24-.242.162-.796.417-.652.742.145.324.687.573.883.921z" fill="#FBBEBE"/><path opacity=".1" d="M260.337 249.081c.281.569.331 1.226.138 1.831a7.427 7.427 0 01-.813 1.686 8.006 8.006 0 01-1.055 1.506c1.949.093 3.834-.672 5.547-1.599 1.384-.747 2.762-1.668 3.5-3.065a1.598 1.598 0 01-1.291-.243 4.61 4.61 0 01-.986-.921l-.975-1.101a4.461 4.461 0 01-.577-.794 2.2 2.2 0 01-.259-1.28 7.441 7.441 0 01-1.292 1.077c-.697.458-1.464.788-2.168 1.24-.242.162-.796.417-.652.742.145.324.687.573.883.921z" fill="#000"/><path d="M260.36 249.272a1.651 1.651 0 000 1.912c.057.069.265.504.352.51a.326.326 0 00.219-.116c.443-.465.855-.958 1.234-1.478a2.741 2.741 0 011.568-1.031c.777-.03 1.54.209 2.163.678.289.132.544.331.743.579.14.256.222.538.243.829.188 1.748.261 3.508.219 5.266.033 1.27-.05 2.541-.248 3.795-.127.644-.312 1.275-.398 1.93a12.307 12.307 0 00-.081 1.738v2.422c-.015.444.016.889.092 1.327.116.527.364 1.019.531 1.535.172.592.29 1.199.352 1.814l.328 2.503c.104.787.185 1.651-.294 2.317-.213.284-.496.516-.715.8-.813 1.066-.576 2.59-.893 3.893a4.864 4.864 0 01-1.581 2.434 2.598 2.598 0 01-2.081.747c-1.015-.191-1.621-1.251-1.897-2.254-.277-1.002-.375-2.091-.975-2.937a7.742 7.742 0 00-1.926-1.617 3.342 3.342 0 01-1.505-1.964c-.063-.365 0-.742-.063-1.112a2.62 2.62 0 00-1.609-2.127c-.519-.203-1.153-.278-1.453-.753a3.517 3.517 0 001.516-2.045c.23-.843.354-1.711.369-2.584l.173-2.897c.081-1.304.116-2.59.687-3.761.253-.521.576-1.014.836-1.529.351-.725.65-1.474.893-2.242a99.527 99.527 0 001.2-3.593 6.796 6.796 0 01.657-1.674c.312-.545.761-1.199 1.344-1.315z" fill="#E8E8F0"/><path d="M253.93 268.183h.767l.162-1.158a2.43 2.43 0 01.161-.678c.127-.231.275-.448.444-.649.75-1.072.698-2.492.882-3.795a19.395 19.395 0 011.684-4.96l1.488-3.331c.135-.273.243-.558.323-.852.062-.325.093-.655.092-.985 0-.516.162-2.393.179-2.897 0-.191-.421-.087-.508-.255-.184-.371-.438.632-.79.852-.33.253-.571.607-.686 1.008-.323.834-.519 1.738-.819 2.567a5.244 5.244 0 01-1.389 2.271c-.306.266-.658.481-.946.77-.923.916-1.015 2.37-1.044 3.679-.023.8-.173 8.413 0 8.413zM264.967 247.887a2.628 2.628 0 00-1.367 1.883 9.524 9.524 0 01-.692 2.318c-.934 1.634-3.315 2.109-3.978 3.876a7.175 7.175 0 00-.266 1.825c-.115 1.269-.53 2.491-.657 3.754a16.9 16.9 0 00.069 2.95l.836 9.977c.16 1.467.077 2.951-.248 4.391a4.187 4.187 0 002.503-.417c.779-.359 1.494-.851 2.249-1.269 1.292-.718 2.722-1.222 3.858-2.178.203-.163.379-.359.519-.579.173-.419.29-.86.346-1.31.098-.353.223-.698.374-1.031a30.202 30.202 0 001.085-3.083c.208-.692.373-1.396.495-2.109a21.77 21.77 0 00.191-1.738c.06-.898.238-1.785.53-2.636a21.31 21.31 0 001.217-6.327c.022-.31.001-.622-.063-.927a4.968 4.968 0 00-.508-1.06c-.346-.655-.577-1.373-.876-2.04a10.023 10.023 0 00-3.408-3.598c-.669-.457-1.453-.944-2.209-.672z" fill="#2F2E41"/><path d="M247.547 264.168a6 6 0 01-1.586-1.211c-.208-.243-.381-.515-.577-.759a3.915 3.915 0 00-1.995-1.158 9.663 9.663 0 00-2.306-.226 4.16 4.16 0 00-1.54.185 1.572 1.572 0 00-1.021 1.101 1.835 1.835 0 00.779 1.622c.45.371.982.63 1.551.753a12.2 12.2 0 001.401.168c2.757.29 5.219 1.797 7.635 3.17a94.058 94.058 0 006.493 3.383c.085-.662.122-1.33.11-1.999 0-.498-.041-1.263-.508-1.558a10.118 10.118 0 00-2.064-.62 32.308 32.308 0 01-4.158-1.692c-.761-.33-1.493-.736-2.214-1.159zM259.604 248.513c2.714 0 4.913-2.223 4.913-4.966 0-2.742-2.199-4.965-4.913-4.965-2.713 0-4.913 2.223-4.913 4.965 0 2.743 2.2 4.966 4.913 4.966z" fill="#FBBEBE"/><path d="M266.368 253.513a7.922 7.922 0 00-.951 1.79c-.577 1.252-1.557 2.318-2.036 3.645-.478 1.327-.484 3.03-1.47 4.113a1.449 1.449 0 00-.433.626 2.85 2.85 0 01-.046.452c-.144.394-.784.412-.905.817-.035.116 0 .243-.058.359-.098.261-.444.302-.669.458-.478.325-.38 1.078-.72 1.547a1.3 1.3 0 01-1.229.435 4.32 4.32 0 01-1.274-.481 1.218 1.218 0 00-.461-.145.95.95 0 00-.531.185 3.284 3.284 0 00-1.326 2.81 9.213 9.213 0 00.761 3.146c.049.173.133.333.248.47a1.098 1.098 0 001.222.092 5.77 5.77 0 011.194-.538c.761-.139 1.505.388 2.278.341a3.161 3.161 0 001.534-.677 8.479 8.479 0 002.064-1.739c.335-.446.577-.95.877-1.425.381-.577.795-1.133 1.239-1.663l2.838-3.476c.281-.33.536-.683.761-1.055a7.453 7.453 0 00.576-1.593c.304-.918.497-1.869.577-2.833a10.89 10.89 0 00-.208-2.376 8.437 8.437 0 00-.576-2.265c-.617-1.31-2.117-2.376-3.276-1.02z" fill="#2F2E41"/><path d="M276.241 247.036a5.587 5.587 0 00-.595-2.535 5.558 5.558 0 00-1.677-1.985 6.637 6.637 0 00-1.621-4.247 6.574 6.574 0 00-3.967-2.19 6.422 6.422 0 00-2.28-3.755 6.366 6.366 0 00-4.152-1.396 6.367 6.367 0 00-4.07 1.62 6.428 6.428 0 00-2.075 3.873c-2.041-.463-3.909.139-4.25 1.402-.34 1.263 1.102 2.897 3.253 3.477a6.05 6.05 0 002.087.208 6.407 6.407 0 001.907 1.843 6.368 6.368 0 002.487.909 6.593 6.593 0 001.697 3.17 6.543 6.543 0 003.101 1.801 5.525 5.525 0 001.482 2.057v.481a4.194 4.194 0 001.218 2.954 4.158 4.158 0 002.939 1.224 4.137 4.137 0 002.94-1.224 4.181 4.181 0 001.218-2.954c0-.637-.135-1.268-.398-1.848a5.605 5.605 0 00.756-2.885z" fill="#F86D70"/><path opacity=".1" d="M252.938 238.09c.341-1.263 2.209-1.866 4.25-1.402a6.529 6.529 0 012.173-3.911 6.475 6.475 0 014.17-1.582h.421a6.241 6.241 0 00-1.81-.272 6.47 6.47 0 00-4.171 1.582 6.528 6.528 0 00-2.172 3.91c-2.042-.463-3.91.14-4.25 1.403-.341 1.263 1.101 2.897 3.252 3.476a6.3 6.3 0 001.234.214c-2.059-.62-3.437-2.126-3.097-3.418zM268.929 252.013a4.182 4.182 0 010-.475 5.4 5.4 0 01-1.482-2.057 6.528 6.528 0 01-3.105-1.802 6.577 6.577 0 01-1.693-3.175 6.358 6.358 0 01-4.4-2.747 5.484 5.484 0 01-1.228-.034 6.395 6.395 0 004.238 2.532 6.598 6.598 0 001.697 3.17 6.551 6.551 0 003.101 1.801 5.536 5.536 0 001.482 2.057v.481a4.263 4.263 0 001.18 3.017 4.225 4.225 0 002.955 1.305 4.305 4.305 0 01-2.006-1.606 4.34 4.34 0 01-.739-2.467z" fill="#000"/><path d="M261.857 245.371c.333-.254.329-.821-.008-1.267-.338-.446-.88-.602-1.212-.348-.333.253-.329.82.008 1.266.338.446.88.602 1.212.349z" fill="#FBBEBE"/><defs><linearGradient id="paint0_linear" x1="442.325" y1="330.225" x2="442.325" y2="230.5" gradientUnits="userSpaceOnUse"><stop stop-color="gray" stop-opacity=".25"/><stop offset=".54" stop-color="gray" stop-opacity=".12"/><stop offset="1" stop-color="gray" stop-opacity=".1"/></linearGradient><linearGradient id="paint1_linear" x1="35987.6" y1="38839.7" x2="35987.6" y2="32937.9" gradientUnits="userSpaceOnUse"><stop stop-color="gray" stop-opacity=".25"/><stop offset=".54" stop-color="gray" stop-opacity=".12"/><stop offset="1" stop-color="gray" stop-opacity=".1"/></linearGradient></defs></svg>