<svg width="18" height="18" fill="none" xmlns="http://www.w3.org/2000/svg"><g clip-path="url(#clip0)"><path d="M11.287 3.75a3.75 3.75 0 012.963 2.963L11.287 3.75zm0-3a6.75 6.75 0 015.963 5.955L11.287.75zM16.5 12.69v2.25a1.499 1.499 0 01-1.635 1.5 14.843 14.843 0 01-6.473-2.303 14.625 14.625 0 01-4.5-4.5A14.842 14.842 0 011.59 3.135 1.5 1.5 0 013.082 1.5h2.25a1.5 1.5 0 011.5 1.29 9.63 9.63 0 00.525 2.107A1.5 1.5 0 017.02 6.48l-.953.952a12 12 0 004.5 4.5l.953-.952a1.5 1.5 0 011.582-.338c.68.254 1.388.43 2.108.526a1.5 1.5 0 011.29 1.522z" stroke="#fff" stroke-width="2" stroke-linecap="round" stroke-linejoin="round"/></g><defs><clipPath id="clip0"><path fill="#fff" d="M0 0h18v18H0z"/></clipPath></defs></svg>