<svg width="34" height="34" fill="none" xmlns="http://www.w3.org/2000/svg"><path d="M20.575 7.5a7.5 7.5 0 015.925 5.925L20.575 7.5zm0-6A13.5 13.5 0 0132.5 13.41L20.575 1.5zM31 25.38v4.5a3 3 0 01-3.27 3 29.684 29.684 0 01-12.945-4.605 29.249 29.249 0 01-9-9A29.685 29.685 0 011.18 6.27 3 3 0 014.165 3h4.5a3 3 0 013 2.58 19.26 19.26 0 001.05 4.215 3 3 0 01-.675 3.165l-1.905 1.905a24 24 0 009 9l1.905-1.905a3 3 0 013.165-.675c1.36.508 2.775.86 4.215 1.05A3 3 0 0131 25.38z" stroke="#fff" stroke-width="2" stroke-linecap="round" stroke-linejoin="round"/></svg>