<svg width="30" height="30" viewBox="0 0 30 30" fill="none" xmlns="http://www.w3.org/2000/svg">
<path d="M12.5 3.75V6.25H6.25V23.75H23.75V17.5H26.25V25C26.25 25.3315 26.1183 25.6495 25.8839 25.8839C25.6495 26.1183 25.3315 26.25 25 26.25H5C4.66848 26.25 4.35054 26.1183 4.11612 25.8839C3.8817 25.6495 3.75 25.3315 3.75 25V5C3.75 4.66848 3.8817 4.35054 4.11612 4.11612C4.35054 3.8817 4.66848 3.75 5 3.75H12.5ZM21.9825 6.25H16.25V3.75H26.25V13.75H23.75V8.0175L15 16.7675L13.2325 15L21.9825 6.25Z" fill="white"/>
</svg>
