<svg width="30" height="30" viewBox="0 0 30 30" fill="none" xmlns="http://www.w3.org/2000/svg">
<path d="M2.5 15C2.5 13.9188 2.6375 12.8713 2.895 11.87C3.58558 11.9063 4.27275 11.751 4.88055 11.4211C5.48835 11.0912 5.9931 10.5998 6.33901 10.0009C6.68492 9.40214 6.85851 8.71935 6.84059 8.02804C6.82268 7.33674 6.61396 6.66385 6.2375 6.08376C7.74868 4.59698 9.61349 3.51938 11.6562 2.95251C11.97 3.56936 12.4483 4.08735 13.0382 4.44915C13.6282 4.81096 14.3067 5.00246 14.9987 5.00246C15.6908 5.00246 16.3693 4.81096 16.9593 4.44915C17.5492 4.08735 18.0275 3.56936 18.3413 2.95251C20.384 3.51938 22.2488 4.59698 23.76 6.08376C23.3831 6.66396 23.1741 7.3371 23.156 8.02872C23.138 8.72034 23.3116 9.40347 23.6577 10.0025C24.0038 10.6016 24.5089 11.0932 25.1171 11.423C25.7253 11.7528 26.4129 11.908 27.1038 11.8713C27.3612 12.8713 27.4988 13.9188 27.4988 15C27.4988 16.0813 27.3612 17.1288 27.1038 18.13C26.4131 18.0935 25.7257 18.2487 25.1177 18.5784C24.5098 18.9082 24.0048 19.3996 23.6588 19.9985C23.3127 20.5973 23.139 21.2802 23.1569 21.9717C23.1747 22.6631 23.3835 23.3361 23.76 23.9163C22.2488 25.4031 20.384 26.4806 18.3413 27.0475C18.0275 26.4307 17.5492 25.9127 16.9593 25.5509C16.3693 25.1891 15.6908 24.9976 14.9987 24.9976C14.3067 24.9976 13.6282 25.1891 13.0382 25.5509C12.4483 25.9127 11.97 26.4307 11.6562 27.0475C9.61349 26.4806 7.74868 25.4031 6.2375 23.9163C6.61438 23.3361 6.82341 22.6629 6.84146 21.9713C6.85951 21.2797 6.68587 20.5966 6.33976 19.9975C5.99366 19.3984 5.48857 18.9068 4.88038 18.577C4.2722 18.2472 3.58463 18.0921 2.89375 18.1288C2.6375 17.13 2.5 16.0825 2.5 15ZM8.505 18.75C9.2925 20.1138 9.5175 21.6825 9.21 23.155C9.72 23.5175 10.2625 23.8313 10.8313 24.0925C11.9771 23.0661 13.4616 22.4989 15 22.5C16.575 22.5 18.0475 23.0888 19.1688 24.0925C19.7375 23.8313 20.28 23.5175 20.79 23.155C20.4743 21.65 20.7253 20.0814 21.495 18.75C22.2633 17.418 23.4963 16.4165 24.9575 15.9375C25.0153 15.3139 25.0153 14.6862 24.9575 14.0625C23.4958 13.5838 22.2623 12.5823 21.4937 11.25C20.7241 9.91868 20.473 8.35006 20.7887 6.84501C20.2789 6.48242 19.7361 6.16854 19.1675 5.90751C18.022 6.93368 16.5379 7.50078 15 7.50001C13.4616 7.50108 11.9771 6.93397 10.8313 5.90751C10.2627 6.16855 9.71986 6.48242 9.21 6.84501C9.52571 8.35006 9.27466 9.91868 8.505 11.25C7.73671 12.582 6.50373 13.5836 5.0425 14.0625C4.98469 14.6862 4.98469 15.3139 5.0425 15.9375C6.50419 16.4162 7.73766 17.4177 8.50625 18.75H8.505ZM15 18.75C14.0054 18.75 13.0516 18.3549 12.3483 17.6517C11.6451 16.9484 11.25 15.9946 11.25 15C11.25 14.0055 11.6451 13.0516 12.3483 12.3484C13.0516 11.6451 14.0054 11.25 15 11.25C15.9946 11.25 16.9484 11.6451 17.6517 12.3484C18.3549 13.0516 18.75 14.0055 18.75 15C18.75 15.9946 18.3549 16.9484 17.6517 17.6517C16.9484 18.3549 15.9946 18.75 15 18.75ZM15 16.25C15.3315 16.25 15.6495 16.1183 15.8839 15.8839C16.1183 15.6495 16.25 15.3315 16.25 15C16.25 14.6685 16.1183 14.3506 15.8839 14.1161C15.6495 13.8817 15.3315 13.75 15 13.75C14.6685 13.75 14.3505 13.8817 14.1161 14.1161C13.8817 14.3506 13.75 14.6685 13.75 15C13.75 15.3315 13.8817 15.6495 14.1161 15.8839C14.3505 16.1183 14.6685 16.25 15 16.25Z" fill="white"/>
</svg>
