<svg width="160" height="169" fill="none" xmlns="http://www.w3.org/2000/svg"><path d="M27.25 68.36c-1.12-.51-2.44-.66-3.95-.45-1.51.21-2.83.73-3.95 1.56-1.12.82-1.99 1.89-2.6 3.21-.61 1.32-.92 2.81-.93 4.47 0 1.67.3 3.08.9 4.24.6 1.16 1.47 2 2.59 2.5 1.12.51 2.45.66 3.96.45 1.52-.21 2.83-.73 3.96-1.56 1.12-.82 1.98-1.9 2.58-3.23.6-1.33.9-2.83.9-4.49 0-1.66-.29-3.07-.89-4.22-.59-1.14-1.45-1.97-2.57-2.48zM25.9 79.47c-.63.95-1.51 1.5-2.62 1.65-1.11.16-1.98-.15-2.6-.91-.62-.76-.93-1.97-.93-3.62 0-1.64.32-2.92.95-3.84.63-.93 1.5-1.47 2.61-1.63 1.11-.16 1.99.15 2.62.9.63.76.94 1.95.94 3.57-.02 1.65-.34 2.94-.97 3.88zM44.41 75.07a1.93 1.93 0 00-1.12-.47c.97-.47 1.73-1.13 2.27-2 .54-.86.8-1.83.81-2.91 0-1.55-.45-2.67-1.35-3.38-.9-.7-2.25-.93-4.04-.68l-6.9.97-.03 16.03 3.86-.54.01-6.24 1.42-.2c.82-.12 1.34.11 1.56.68l1.91 5.06 4.15-.58-1.74-4.53c-.21-.52-.48-.92-.81-1.21zm-2.27-3.38c-.38.33-.98.56-1.81.67l-2.46.35.01-3.44 2.46-.35c.85-.12 1.46-.07 1.82.15.37.22.55.64.55 1.25 0 .58-.19 1.04-.57 1.37zM56.94 73.22l2.58-.36-.01 2.97c-.65.24-1.31.41-1.96.5-1.4.2-2.44-.07-3.11-.8-.67-.73-1.01-1.95-1.01-3.66 0-1.65.33-2.92.98-3.82.65-.89 1.63-1.43 2.95-1.62.72-.1 1.4-.09 2.03.04.63.13 1.29.39 1.97.77l1.24-3.17c-.6-.44-1.37-.74-2.32-.91-.95-.17-1.96-.18-3.03-.02-1.56.22-2.92.74-4.09 1.58-1.17.83-2.07 1.91-2.72 3.24-.64 1.33-.96 2.82-.97 4.47 0 1.7.31 3.12.95 4.27.64 1.15 1.55 1.97 2.74 2.46 1.19.49 2.59.63 4.2.4 1.03-.14 2.03-.39 3.01-.74s1.87-.77 2.66-1.27l.01-8.04-6.11.86.01 2.85zM71.73 61.31l-6.97 17 3.92-.55L70 74.27l6.59-.93 1.31 3.12 3.86-.54-6.94-15.05-3.09.44zm-.46 9.61l2.03-5.35 2.01 4.78-4.04.57zM87.31 66.05l6.72 8.15 2.9-.41.03-16.03-3.69.52-.02 9.05-6.72-8.1-2.85.4-.03 16.03 3.65-.52.01-9.09zM104.61 56.69l-3.92.55-.03 16.03 3.92-.55.03-16.03zM120.54 68.92l-1.18-2.83c-1.21 1.11-2.46 1.76-3.76 1.95-1.2.17-2.11-.12-2.75-.85-.64-.74-.96-1.91-.95-3.53 0-1.61.32-2.86.97-3.77.64-.91 1.56-1.45 2.75-1.61 1.29-.18 2.54.12 3.75.89l1.2-3.16c-.55-.46-1.29-.79-2.2-.98-.91-.18-1.85-.21-2.83-.07-1.54.22-2.89.75-4.04 1.59-1.15.84-2.03 1.93-2.65 3.25-.62 1.33-.93 2.8-.94 4.42 0 1.64.31 3.03.92 4.19.62 1.16 1.5 2 2.64 2.52 1.14.52 2.49.67 4.03.46.97-.14 1.92-.43 2.83-.87.92-.45 1.65-.98 2.21-1.6zM45.07 88.61c-.93-.75-2.24-1-3.94-.76l-7.07.99-.03 16.03 3.92-.55.01-6.26 3.15-.44c1.67-.23 2.98-.86 3.92-1.88.95-1.02 1.42-2.27 1.42-3.76.02-1.5-.45-2.62-1.38-3.37zm-4.47 5.93l-2.63.37.01-3.42 2.63-.37c.76-.11 1.32-.04 1.68.21.35.24.53.65.53 1.22-.01 1.11-.74 1.78-2.22 1.99zM59.74 95.16a1.93 1.93 0 00-1.12-.47c.97-.47 1.73-1.13 2.27-2 .54-.86.81-1.83.81-2.92 0-1.54-.45-2.67-1.35-3.38-.9-.71-2.25-.93-4.04-.68l-6.9.97-.03 16.03 3.86-.54.01-6.24 1.42-.2c.82-.12 1.34.11 1.56.68l1.91 5.07 4.15-.58-1.74-4.53c-.21-.53-.48-.93-.81-1.21zm-2.27-3.39c-.38.33-.98.55-1.82.67l-2.46.35.01-3.44 2.46-.35c.85-.12 1.46-.07 1.82.15.37.22.55.64.55 1.25.01.59-.18 1.04-.56 1.37zM76.24 83.71c-1.12-.51-2.43-.66-3.95-.45-1.52.21-2.83.73-3.96 1.56-1.12.82-1.99 1.89-2.6 3.21-.62 1.32-.92 2.81-.93 4.47 0 1.67.3 3.08.9 4.24.6 1.16 1.47 2 2.59 2.5 1.12.51 2.45.66 3.96.45 1.52-.21 2.83-.73 3.95-1.56 1.12-.82 1.98-1.9 2.58-3.23.6-1.33.9-2.83.91-4.49 0-1.66-.29-3.07-.89-4.22-.58-1.14-1.44-1.97-2.56-2.48zm-1.35 11.12c-.64.95-1.51 1.5-2.62 1.65-1.11.16-1.98-.15-2.6-.91-.63-.76-.93-1.97-.93-3.62 0-1.64.32-2.92.95-3.84.63-.93 1.5-1.47 2.61-1.63 1.11-.16 1.98.15 2.62.9.63.76.94 1.95.94 3.57-.02 1.64-.34 2.93-.97 3.88zM93.36 81.46c-1.19-.47-2.6-.59-4.24-.36l-6.07.85-.03 16.03 6.07-.85c1.65-.23 3.07-.75 4.27-1.56 1.19-.81 2.1-1.86 2.73-3.15.63-1.3.94-2.78.95-4.44 0-1.65-.31-3.03-.94-4.14a5.317 5.317 0 00-2.74-2.38zm-1.29 10.72c-.72.87-1.8 1.41-3.25 1.61l-1.88.26.02-9.27 1.88-.26c2.88-.4 4.31.93 4.31 4.01 0 1.56-.36 2.77-1.08 3.65zM109.62 87.65c0 1.14-.24 2.06-.72 2.74-.47.69-1.15 1.1-2.02 1.22-.89.13-1.57-.09-2.05-.63-.48-.55-.71-1.4-.71-2.56l.02-9.43-3.82.54-.02 9.27c0 2.28.55 3.93 1.66 4.96 1.11 1.02 2.75 1.38 4.92 1.07 2.13-.3 3.76-1.13 4.89-2.48 1.14-1.35 1.71-3.15 1.71-5.41l.02-9.27-3.86.54-.02 9.44zM124.4 79.27c1.29-.18 2.54.11 3.75.89l1.2-3.16c-.55-.46-1.29-.79-2.2-.98-.91-.19-1.85-.21-2.83-.07-1.54.22-2.89.75-4.04 1.59a8.414 8.414 0 00-2.65 3.25c-.62 1.33-.93 2.8-.94 4.42 0 1.64.31 3.03.92 4.19.62 1.16 1.5 2 2.64 2.52 1.15.52 2.49.68 4.03.46.97-.14 1.92-.43 2.83-.87.91-.44 1.65-.97 2.2-1.59l-1.18-2.83c-1.21 1.11-2.46 1.76-3.76 1.95-1.2.17-2.11-.12-2.75-.85-.64-.74-.96-1.91-.95-3.53 0-1.61.32-2.86.97-3.77.65-.91 1.56-1.45 2.76-1.62zM131.14 75.2v3.42l4.42-.62-.03 12.6 3.96-.55.03-12.61 4.42-.62.01-3.42-12.81 1.8zM81.1 150c2.25-4.89 6.57-8.65 11.45-10.93 4.88-2.28 10.3-3.18 15.68-3.43-.35 6.54-.76 13.33-3.93 19.06-2.76 4.98-12.44 13.41-18.69 12.96-.19-.01-.38-.04-.56-.07a44.938 44.938 0 0110.76-15.42c.65-.6.69-1.62.08-2.27a1.6 1.6 0 00-2.27-.08 48.025 48.025 0 00-11.45 16.34c-3.66-3.54-2.82-12.36-1.07-16.16zM70.25 144.01c3.9 4.35 8.97 16.29 6.64 21.83-.27.64-.63 1.17-1.05 1.6-5.73-5.21-10.13-11.97-12.52-19.32a1.61 1.61 0 00-3.06 1c2.43 7.45 6.78 14.34 12.45 19.79-4.61.64-11.29-2.79-14.02-5.44-3.97-3.85-6.23-9.18-6.91-14.47-.68-5.29.11-10.58 1.52-15.58 6.12 2.71 12.47 5.59 16.95 10.59z" fill="#7B7B7B"/><path d="M124.29 145.64c-.93 0-1.84-.44-2.42-1.25-.95-1.34-.63-3.19.71-4.13 9.46-6.7 17.32-15.64 22.72-25.87 5.58-10.56 8.53-22.49 8.53-34.52 0-19.75-7.69-38.32-21.66-52.29C118.2 13.61 99.63 5.92 79.88 5.92s-38.32 7.69-52.29 21.66C13.62 41.55 5.93 60.12 5.93 79.87c0 12.03 2.95 23.96 8.53 34.52a74.648 74.648 0 0022.72 25.87c1.34.95 1.65 2.8.71 4.13a2.966 2.966 0 01-4.13.71c-10.21-7.23-18.7-16.89-24.54-27.93C3.19 105.76 0 92.87 0 79.88c0-21.34 8.31-41.4 23.4-56.48C38.49 8.31 58.55 0 79.88 0c21.34 0 41.4 8.31 56.48 23.4 15.09 15.09 23.4 35.15 23.4 56.48 0 12.99-3.19 25.88-9.22 37.29A80.46 80.46 0 01126 145.1c-.51.36-1.11.54-1.71.54z" fill="#7B7B7B"/><path d="M119.62 38.79c.73-.1 1.32.45 1.32 1.24s-.59 1.51-1.32 1.61L35.36 53.48c-.73.1-1.32-.45-1.32-1.24s.59-1.51 1.32-1.61l84.26-11.84zM119.62 104.11c.73-.1 1.32.45 1.32 1.24s-.59 1.51-1.32 1.61L35.36 118.8c-.73.1-1.32-.45-1.32-1.24s.59-1.51 1.32-1.61l84.26-11.84z" fill="#7B7B7B"/></svg>