<svg width="223" height="162" fill="none" xmlns="http://www.w3.org/2000/svg"><path d="M9.102 113.234l6.844-15.647a3.633 3.633 0 000-2.898L9.102 79.042h12.27v-7.219H3.602a3.607 3.607 0 00-3.3 5.053l8.42 19.256-8.42 19.256a3.609 3.609 0 003.3 5.053H45.16a76.393 76.393 0 01-3.776-7.218H9.102v.011zM214.279 96.142l8.419-19.256a3.604 3.604 0 00-.286-3.418 3.601 3.601 0 00-3.014-1.635h-17.77v7.219h12.27l-6.844 15.647a3.633 3.633 0 000 2.898l6.844 15.647h-32.282a75.257 75.257 0 01-3.776 7.218h41.558a3.602 3.602 0 003.014-1.635 3.604 3.604 0 00.286-3.418l-8.419-19.267zM78.658 60.295c6.875-10.944 19.028-18.237 32.842-18.237s25.967 7.293 32.842 18.237h4.178c-7.256-13.014-21.133-21.846-37.02-21.846-15.887 0-29.764 8.821-37.02 21.846h4.178zM144.342 101.705c-6.875 10.944-19.028 18.237-32.842 18.237s-25.967-7.293-32.842-18.237H74.48c7.256 13.014 21.133 21.846 37.02 21.846 15.887 0 29.764-8.821 37.02-21.846h-4.178z" fill="#7B7B7B"/><path d="M40.94 60.295C49.877 29.659 78.129 7.229 111.5 7.229s61.623 22.44 70.56 53.066h7.489c-3.586-13.705-10.736-26.273-20.985-36.57C153.322 8.43 133.056 0 111.5 0 89.944 0 69.678 8.429 54.436 23.725c-10.25 10.286-17.4 22.855-20.985 36.57h7.489zM182.06 101.705c-8.937 30.636-37.189 53.066-70.56 53.066s-61.623-22.441-70.56-53.066h-7.49c3.586 13.704 10.737 26.273 20.986 36.57C69.678 153.571 89.944 162 111.5 162c21.556 0 41.822-8.429 57.064-23.725 10.249-10.287 17.399-22.855 20.985-36.57h-7.489z" fill="#7B7B7B"/><path d="M201.628 105.314H21.372a3.6 3.6 0 01-3.596-3.609v-41.41a3.6 3.6 0 013.596-3.61h180.256a3.6 3.6 0 013.596 3.61v41.41a3.599 3.599 0 01-3.596 3.609zm-176.66-7.208h173.075V63.915H24.968v34.191z" fill="#7B7B7B"/><path d="M45.763 91.568V70.39h4.76c1.258 0 2.39.33 3.395.998.867.563 1.48 1.433 1.85 2.622.202.626.307 1.38.307 2.25 0 1.423-.38 2.559-1.131 3.408-.318.36-.688.637-1.11.828.708.265 1.31.807 1.797 1.603.328.541.572 1.242.72 2.091.074.435.116.924.116 1.465 0 1.338-.254 2.473-.762 3.407a4.548 4.548 0 01-1.66 1.752c-.804.499-1.608.743-2.412.743h-5.87v.01zm3.427-12.526h1.333c.983 0 1.65-.489 1.988-1.455.127-.36.18-.806.18-1.337 0-.881-.212-1.54-.635-1.996-.391-.414-.899-.626-1.533-.626H49.19v5.414zm0 9.373h1.333c1.078 0 1.819-.552 2.242-1.677.148-.382.222-.818.222-1.317 0-1.178-.222-2.038-.677-2.58-.402-.498-.994-.742-1.788-.742H49.19v6.316zM68.98 91.801c-1.407 0-2.592-.488-3.565-1.465-.973-.976-1.46-2.165-1.46-3.566V70.4h3.11v16.327c0 .51.18.934.54 1.295.36.35.793.531 1.29.531.508 0 .93-.18 1.29-.53.35-.351.53-.786.53-1.296V70.401h3.31V86.77c0 1.422-.497 2.611-1.48 3.577-.984.977-2.18 1.454-3.565 1.454zM84.687 73.617h-3.385v-3.206h9.932v3.206h-3.363v17.95h-3.184v-17.95zM103.207 91.844c-1.406 0-2.591-.489-3.575-1.476-.983-.987-1.47-2.176-1.47-3.567v-11.55c0-1.41.497-2.6 1.481-3.587.984-.987 2.179-1.475 3.564-1.475 1.407 0 2.592.498 3.565 1.486.973.987 1.46 2.186 1.46 3.577v2.42h-3.3v-2.484c0-.51-.18-.945-.54-1.305a1.77 1.77 0 00-1.301-.542c-.508 0-.931.18-1.29.542-.349.36-.529.796-.529 1.305V86.77c0 .51.18.934.529 1.295.349.35.782.53 1.29.53s.941-.18 1.301-.53c.36-.35.54-.786.54-1.295v-2.92h3.3v2.951c0 1.412-.497 2.601-1.481 3.578-.984.966-2.168 1.465-3.544 1.465zM118.767 82.597v8.97h-3.184V70.411h3.184v8.98h3.839v-8.98h3.184v21.156h-3.184v-8.97h-3.839zM133.363 91.568V70.39h9.054v3.206h-5.87v5.775h4.294v3.206h-4.294v5.774h5.87v3.206h-9.054v.01zM154.359 70.411c1.777 0 3.078.488 3.903 1.465.73.86 1.089 2.049 1.089 3.577v3.079c0 1.497-.571 2.76-1.703 3.8l2.359 9.235h-3.438l-1.925-7.972h-2.115v7.972h-3.184V70.411h5.014zm1.904 5.096c0-1.232-.603-1.837-1.82-1.837h-1.914v6.773h1.914c.508 0 .931-.18 1.291-.542.349-.36.529-.796.529-1.295v-3.1zM169.78 82.704l-4.262-12.314h3.501l2.358 7.6 2.338-7.6h3.522l-4.273 12.314v8.864h-3.184v-8.864zM68.461 40.285l-.36-.489 4.242-4.087 1.185 1.635-.571.404-.994-.67-1.576 1.508 1.787 1.869.92-.882-.317-.69.465-.679 1.523 1.91-.423.617-.803-.584-.857.828 1.248 1.305 1.132-.626.37.499-2.655 2.548-.35-.468.403-.87-3.427-3.577-.942.499zM81.715 37.121l-2.835 1.922-.254-.52.614-.828-2.687-3.97-.93.382-.318-.573c.317-.298.708-.637 1.153-1.009.455-.371.835-.669 1.153-.881.803-.552 1.491-.85 2.062-.902.571-.053 1.037.18 1.396.722.148.223.244.488.265.775.032.286 0 .583-.095.87a2.38 2.38 0 01-.392.785l1.312.468c.36.127.645.222.857.276.211.063.433.084.655.095.223 0 .445-.032.677-.117l.19-.063.202.52a2.84 2.84 0 01-.688.626c-.423.287-.867.425-1.311.393-.445-.032-.92-.18-1.428-.457l-1.259-.658-.56.382.972 1.444.92-.233.329.551zM77.6 32.536l1.439 2.133.793-.53c.159-.245.243-.489.254-.743.02-.255-.064-.51-.233-.765a1.341 1.341 0 00-.529-.477 1.231 1.231 0 00-.677-.128 1.513 1.513 0 00-.719.276 4.985 4.985 0 01-.222.16.752.752 0 00-.106.074zM84.475 28.183l-.169-.584 5.384-2.43.666 1.91-.687.191-.794-.944-2.02.912.952 2.134 1.164-.53-.074-.744.655-.456.772 2.187-.634.424-.54-.764-1.079.488.92 2.049 2.127-.955.106-1.402.645-.201.656 1.868-5.48 2.473-.19-.552.677-.68-2.03-4.532-1.027.138zM97.147 30.02c-.476.127-.91.17-1.333.127-.412-.042-.73-.16-.952-.34l-.338-1.688.761-.095.487.924c.148.127.338.212.581.254.233.043.476.032.699-.032.169-.042.306-.116.444-.223a.887.887 0 00.275-.382.736.736 0 00.01-.477.667.667 0 00-.275-.383 1.441 1.441 0 00-.486-.212 6.772 6.772 0 00-.751-.16c-.444-.084-.815-.158-1.1-.254a2.244 2.244 0 01-.804-.446 1.762 1.762 0 01-.529-.87c-.116-.425-.106-.828.042-1.2.148-.371.392-.679.72-.934a3.003 3.003 0 011.12-.552c.297-.085.614-.117.974-.117.349 0 .635.053.836.16.01.031.063.286.148.764.084.478.148.796.18.966l-.741.085-.412-.828c-.127-.117-.297-.191-.519-.244a1.28 1.28 0 00-.634.01.83.83 0 00-.498.35c-.105.17-.116.372-.053.616.043.17.149.308.297.414.148.107.328.18.529.234.2.053.476.106.814.17.466.085.846.17 1.153.255.296.095.582.244.835.445.254.213.434.5.53.86.126.446.095.87-.085 1.253-.18.382-.455.711-.815.976-.338.287-.719.467-1.11.574zM101.452 22.451l.031-.626 3.427-.35-.021.626-.878.382.201 1.953 2.909-.297-.19-1.932-1.016-.212.011-.627 3.448-.35-.021.626-.878.383.508 4.978 1.004.16v.626l-3.427.35.011-.584.867-.435-.201-2.017-2.908.297.211 2.06 1.016.159-.022.626-3.405.35v-.584l.877-.435-.497-4.915-1.057-.212zM117.307 28.014l.211-.595.963-.16 1.311-4.755-.92-.467.191-.605 2.697.542.19 1.146.455 3.535 1.925-3.153.561-.902 2.655.53-.201.606-.931.074-.645 4.936.899.467-.191.627-3.141-.627.222-.594.804-.191.476-3.875-2.528 4.225-1.121-.074-.635-4.947-1.005 3.726.772.446-.222.626-2.792-.541zM131.163 24.999l.307-.52 5.458 2.26-.921 1.795-.613-.361.137-1.232-2.052-.849-.888 2.166 1.185.488.486-.563.783.16-1.047 2.07-.751-.17.19-.924-1.089-.456-.857 2.07 2.158.891 1.078-.891.593.329-.899 1.762-5.553-2.304.275-.51.962.022 1.894-4.586-.836-.647zM136.737 34.181l.37-.446.942.085 4.929-3.556 1.28.51-1.397 6.157.455.732-.381.488-2.845-1.815.37-.446 1.005.128.265-1.179-1.862-1.189-.952.754.656.86-.391.488-2.444-1.57zm3.85-1.083l1.386.882.603-2.442-1.989 1.56zM149.514 34.722l4.75 4.384-1.576 1.455-.476-.605.677-1.147-.974-.902-3.501 3.821.603.892-.486.414-2.56-2.357.434-.392.909.403 3.491-3.81-.952-.882-1.248.807-.455-.563 1.364-1.518zM65.775 119.815l-1.851-2.24.391-.233.677.403 2.877-2.399-.36-.69.413-.276c.338.308.645.584.899.838.254.255.518.531.783.86.433.52.677.998.74 1.444.064.435-.127.849-.571 1.21-.254.212-.54.329-.857.372a1.884 1.884 0 01-.952-.149 2.2 2.2 0 01-.835-.648 4.151 4.151 0 01-.233-.307l.349-.425.095.117c.243.286.497.446.762.477.264.032.518-.053.761-.265.254-.212.402-.456.445-.722.042-.276-.043-.552-.275-.828a1.441 1.441 0 00-.127-.138l-.117-.116-3.004 2.505.455.934-.465.276zM70.534 124.836l-1.935-1.815.349-.287.73.318 2.528-2.717-.445-.637.381-.34c.286.191.603.425.963.701.36.276.645.52.867.722.55.52.9.987 1.037 1.401.137.425.042.817-.296 1.178-.149.16-.318.266-.54.34a1.746 1.746 0 01-.666.085 2.191 2.191 0 01-.656-.159l-.127 1.072c-.032.297-.053.52-.064.7-.01.17.011.34.043.51.032.17.106.329.2.488l.085.138-.36.244a2.478 2.478 0 01-.591-.414c-.297-.276-.466-.583-.519-.923-.053-.34-.02-.733.095-1.157l.275-1.072-.38-.361-.92.987.338.658-.392.34zm2.74-3.907l-1.354 1.455.54.509c.211.075.412.096.603.064a.946.946 0 00.528-.308 1.08 1.08 0 00.265-.478.908.908 0 00-.021-.53 1.134 1.134 0 00-.328-.499c-.064-.053-.117-.106-.159-.138l-.074-.075zM77.463 124.57l.317-.34 3.713 2.676-1.016 1.188-.391-.382.328-.902-1.397-.998-1.047 1.476.804.584.466-.34.56.265-1.153 1.37-.529-.266.307-.658-.74-.531-1.005 1.412 1.47 1.062.973-.478.392.361-.995 1.168-3.776-2.718.296-.34.72.191 2.231-3.12-.528-.68zM80.784 132.734l.285-.393.751.085 1.989-3.259-.592-.542.264-.414 1.893.977-.105.892-.424 2.728 2.105-1.932.603-.552 1.862.966-.275.403-.709-.148-1.534 3.535.572.541-.275.425-2.2-1.147.285-.393.635.032 1.174-2.781-2.782 2.601-.825-.298.582-3.81-1.544 2.558.486.499-.296.414-1.925-.987zM91.308 132.511l.222-.425 2.518.923-.222.446-.762-.042-1.312 3.598.646.457-.222.456-2.486-.913.19-.414h.772l1.301-3.588-.645-.498zM96.47 134.538l-.709-.425.201-.446 2.591.616-.169.446-.74.053-.54 2.272c-.116.499-.084.891.096 1.189.18.297.476.488.878.594.38.085.698.043.962-.138.264-.18.455-.509.56-.987l.551-2.314-.677-.414.169-.457 2.179.52-.169.457-.73.053-.54 2.208c-.19.785-.518 1.327-.973 1.624-.454.297-1.057.35-1.787.181a3.644 3.644 0 01-1.037-.404c-.296-.17-.518-.435-.666-.796-.148-.361-.159-.828-.021-1.401l.57-2.431zM103.197 140.642l.106-.478.73-.212.56-3.779-.751-.266.085-.488 2.126.159.254.871.677 2.675 1.184-2.601.349-.743 2.095.159-.096.488-.708.138-.043 3.854.741.276-.085.499-2.475-.191.116-.478.603-.223v-3.025l-1.544 3.481-.867.054-.952-3.737-.434 2.962.635.265-.117.499-2.189-.159zM119.782 140.653c-.54.074-1.015.031-1.428-.138a2.226 2.226 0 01-1.005-.818 3.11 3.11 0 01-.497-1.337 3.014 3.014 0 01.148-1.486c.18-.457.465-.828.867-1.126.402-.297.889-.488 1.471-.573.529-.074 1.005-.032 1.428.127.412.16.751.425 1.015.807.264.372.434.849.508 1.401.063.414.031.818-.064 1.2a2.552 2.552 0 01-.529 1.008 2.37 2.37 0 01-.909.659c.169.254.402.435.719.552.307.116.719.191 1.238.212v.223c0 .127 0 .201-.011.223a2.609 2.609 0 01-.931.308 1.944 1.944 0 01-.825-.053 1.366 1.366 0 01-.656-.425c-.179-.212-.275-.478-.317-.796a.897.897 0 00-.222.032zm-.603-4.777c-.455.063-.762.265-.941.615-.18.351-.222.818-.138 1.402.053.361.159.7.317 1.029.17.329.392.595.688.807.296.212.656.297 1.079.276.275-.138.465-.308.603-.52.127-.202.211-.435.232-.69a4.113 4.113 0 00-.031-.87 3.686 3.686 0 00-.307-1.03 2.283 2.283 0 00-.613-.807 1.13 1.13 0 00-.889-.212zM124.7 135.026l-.825-.021-.042-.488 2.549-.743.074.478-.613.414.645 2.239c.137.489.36.828.666.998.296.17.656.191 1.058.075.37-.107.635-.308.772-.595.138-.287.148-.669.011-1.136l-.656-2.293-.793-.021-.074-.478 2.157-.626.074.478-.613.414.613 2.187c.212.785.201 1.411-.053 1.9-.253.477-.74.828-1.47 1.04-.391.117-.761.17-1.1.159a1.665 1.665 0 01-.973-.361c-.307-.233-.539-.647-.698-1.21l-.709-2.41zM133.501 136.99l-.127-.435.454-.573-.211-4.713.867-.616 3.385 3.513.666.022.159.456-2.38 1.083-.127-.435.508-.595-.645-.669-1.555.701.084.934.836-.063.148.467-2.062.923zm.93-2.962l1.153-.52-1.322-1.422.169 1.942zM141.032 133.349l-.191-.414.444-.583-1.967-3.196-.814.128-.191-.436 2.317-1.443.19.435-.497.669 2.02 3.28 1.301-.754-.032-1.274.487-.212.687 1.465-3.754 2.335zM144.046 125.674l-.243-.414 2.126-1.645.264.424-.444.627 2.337 3.036.73-.308.265.435-2.095 1.624-.253-.382.412-.658-2.327-3.015-.772.276zM147.452 122.373l3.617-3.471 1.047 1.295-.486.34-.846-.574-.741.712 2.772 2.908.719-.424.296.403-1.946 1.868-.286-.361.36-.679-2.761-2.898-.719.69.56 1.008-.454.33-1.132-1.147zM152.719 117.84l-.317-.382 1.544-1.921.328.371-.148.51 1.841.339-.72-1.709-.539.319-.339-.361 1.217-1.507.328.371-.138.52.963 2.59 1.131.924.635-.393.328.329-1.608 1.985-.307-.329.201-.669-1.068-.87-2.803-.435-.529.318z" fill="#7B7B7B"/></svg>