<svg width="214" height="170" fill="none" xmlns="http://www.w3.org/2000/svg"><path d="M28 63.47c3.67-13.62 10.85-26.11 21.1-36.35C64.52 11.7 85.02 3.21 106.83 3.21c21.81 0 42.31 8.49 57.73 23.91 10.24 10.24 17.43 22.73 21.1 36.35h3.31c-3.74-14.48-11.29-27.76-22.14-38.62C150.8 8.82 129.5 0 106.83 0s-43.97 8.83-60 24.85c-10.86 10.86-18.4 24.14-22.14 38.62H28zM185.66 106.23c-3.67 13.62-10.85 26.11-21.1 36.35-15.42 15.42-35.92 23.91-57.73 23.91-21.81 0-42.31-8.49-57.73-23.91-10.24-10.24-17.43-22.73-21.1-36.35h-3.31c3.74 14.48 11.29 27.76 22.14 38.62 16.03 16.03 37.33 24.85 60 24.85s43.97-8.83 60-24.85c10.86-10.86 18.4-24.14 22.14-38.62h-3.31z" fill="#7B7B7B"/><path d="M175.65 106.23c-3.41 11.04-9.48 21.15-17.88 29.55-13.6 13.6-31.69 21.1-50.93 21.1s-37.33-7.49-50.93-21.1c-8.4-8.4-14.47-18.52-17.88-29.55h-6.68c3.59 12.76 10.41 24.45 20.04 34.08 14.81 14.81 34.51 22.97 55.46 22.97 20.95 0 40.65-8.16 55.46-22.97 9.63-9.63 16.44-21.32 20.04-34.08h-6.7zM38.02 63.47c3.41-11.04 9.48-21.15 17.88-29.55 13.6-13.6 31.69-21.1 50.93-21.1s37.33 7.49 50.93 21.1c8.4 8.4 14.47 18.52 17.88 29.55h6.68c-3.59-12.76-10.41-24.45-20.04-34.08-14.81-14.81-34.51-22.97-55.46-22.97-20.95 0-40.65 8.16-55.46 22.97-9.63 9.63-16.44 21.32-20.04 34.08h6.7z" fill="#7B7B7B"/><path d="M190.69 107.83H22.98C10.31 107.83 0 97.52 0 84.85s10.31-22.98 22.98-22.98h167.71c12.67 0 22.98 10.31 22.98 22.98 0 12.68-10.31 22.98-22.98 22.98zM22.98 65.08c-10.91 0-19.78 8.87-19.78 19.78 0 10.91 8.87 19.78 19.78 19.78h167.71c10.91 0 19.78-8.87 19.78-19.78 0-10.91-8.87-19.78-19.78-19.78H22.98zM106.83 22.63l3.65 11.22h11.79l-9.54 6.93L116.37 52l-9.54-6.93L97.29 52l3.64-11.22-9.54-6.93h11.8l3.64-11.22zM58.32 123.88l.78-1.35-1.8-2.4-1.52.37-.67-.9 6.58-1.47.54.72-3.24 5.92-.67-.89zm-.1-3.97l1.36 1.81 1.42-2.48-2.78.67zM61.74 126.93c0-.61.3-1.22.9-1.81l2.6-2.58.77.78-2.64 2.62c-.38.37-.57.74-.59 1.11-.02.37.14.73.49 1.07.34.34.69.5 1.06.48.37-.02.74-.21 1.12-.58l2.64-2.62.77.78-2.59 2.58c-.59.59-1.2.88-1.81.88-.62 0-1.22-.3-1.81-.89-.62-.6-.91-1.2-.91-1.82zM68.27 133.69l3.2-4.13-1.58-1.23.56-.72 4.05 3.15-.56.72-1.59-1.23-3.2 4.13-.88-.69zM79.98 134.12l.95.56-3.09 5.3-.95-.56 1.34-2.3-2.72-1.59-1.34 2.3-.95-.55 3.09-5.3.95.55-1.3 2.22 2.72 1.59 1.3-2.22zM81.03 141.52l2.37-5.66 3.79 1.59-.34.81-2.78-1.17-.66 1.57 2.62 1.1-.34.81-2.62-1.1-.7 1.66 2.78 1.17-.34.81-3.78-1.59zM93.48 139.36l1.01.28-1.62 5.92-.8-.22-2.06-5.02-1.14 4.15-1-.27 1.62-5.92.8.22 2.05 5.01 1.14-4.15zM97.78 146.42l.71-5.18-1.98-.27.12-.91 5.08.69-.12.91-1.99-.27-.71 5.18-1.11-.15zM103.73 147l.25-6.14 1.11.04-.25 6.14-1.11-.04zM109.43 146.72c-.47-.23-.83-.58-1.1-1.04-.27-.46-.42-1.01-.46-1.64-.04-.63.05-1.19.26-1.68.21-.49.54-.87.97-1.15.44-.28.95-.44 1.56-.48.41-.02.81.02 1.18.13.37.11.69.27.94.48l-.31.83c-.29-.21-.57-.35-.85-.44-.28-.08-.57-.12-.88-.1-.59.03-1.04.25-1.34.66-.3.4-.43.96-.39 1.68.04.72.24 1.27.58 1.64.34.37.81.54 1.41.5.31-.02.6-.09.86-.2.26-.11.53-.29.79-.54l.41.79c-.23.24-.52.44-.88.59-.36.15-.74.24-1.16.26-.59.04-1.12-.06-1.59-.29zM125.5 144.29l-1.13.3-1.28-1.77c-.12-.17-.25-.27-.41-.3-.16-.04-.35-.02-.57.04l-1.08.29.66 2.47-1.07.28-1.58-5.93 2.54-.68c.67-.18 1.22-.17 1.65.03.43.2.72.58.86 1.13.11.39.09.76-.04 1.09-.14.33-.38.61-.73.82.37-.02.69.16.95.53l1.23 1.7zm-3.37-2.64c.41-.11.69-.26.84-.47.15-.2.19-.46.11-.76s-.24-.5-.47-.59c-.23-.1-.55-.09-.96.02l-1.34.36.48 1.8 1.34-.36zM128.52 143.22l-2.32-5.69 3.8-1.55.33.81-2.8 1.14.64 1.57 2.63-1.07.33.82-2.63 1.07.68 1.67 2.8-1.14.33.81-3.79 1.56zM136.1 139.43c-.52-.01-1-.16-1.44-.45-.44-.3-.82-.72-1.13-1.28-.31-.55-.47-1.09-.5-1.63-.02-.53.1-1.02.37-1.46.27-.44.67-.81 1.19-1.11.36-.2.73-.34 1.11-.4.38-.07.73-.06 1.06.03l.08.88a2.84 2.84 0 00-.96-.02c-.29.05-.57.14-.84.3-.52.29-.82.68-.92 1.18-.1.49.03 1.06.38 1.68.35.63.77 1.04 1.24 1.22.47.18.97.13 1.49-.17.27-.15.5-.34.69-.56.19-.22.35-.5.48-.83l.71.53c-.1.32-.27.62-.53.92-.26.29-.56.54-.92.74-.51.29-1.03.44-1.56.43zM142.06 136.15l-3.53-5.03.91-.64 3.53 5.03-.91.64zM141.72 128.82l2.02-1.74c.5-.43 1-.65 1.48-.64.49 0 .91.21 1.27.63.36.42.5.87.43 1.36-.07.49-.36.94-.85 1.37l-1.18 1.01 1.67 1.94-.84.73-4-4.66zm3.69.41c.29-.25.46-.5.51-.75.05-.25-.03-.49-.22-.71-.2-.23-.42-.34-.68-.34-.25.01-.53.14-.82.39l-1.08.93 1.21 1.41 1.08-.93zM151.57 128.14l-4.54-4.13 2.76-3.04.65.59-2.03 2.23 1.26 1.14 1.91-2.1.65.59-1.91 2.1 1.33 1.21 2.03-2.23.65.59-2.76 3.05zM156.63 122c-.34.26-.69.44-1.05.54l-.44-.78c.36-.11.67-.27.95-.47.28-.2.52-.46.75-.77.25-.35.38-.66.39-.93a.715.715 0 00-.31-.65.598.598 0 00-.62-.05c-.23.1-.53.33-.9.66-.58.53-1.08.86-1.5.99-.42.13-.83.05-1.25-.24-.29-.21-.5-.48-.62-.8-.12-.32-.13-.68-.06-1.06.08-.39.25-.77.53-1.15.25-.35.54-.65.87-.89.33-.24.66-.39.99-.46l.44.77c-.67.19-1.2.56-1.59 1.09-.23.32-.35.63-.35.91s.11.51.34.67c.2.14.41.16.63.07.22-.09.52-.31.9-.65.4-.35.74-.61 1.05-.79.3-.18.59-.28.87-.29.28-.01.56.08.83.27.3.21.5.48.61.8.11.32.12.67.03 1.06s-.28.78-.57 1.19c-.27.38-.58.7-.92.96z" fill="#7B7B7B"/><path d="M26.44 92.44h-7.46l.18-1.26 2.11-.75V80l-2.15-.45.13-1.41c.94-.15 2.05-.28 3.32-.4s2.33-.18 3.16-.18c2.12 0 3.72.3 4.82.9 1.09.6 1.64 1.6 1.64 3 0 .59-.15 1.17-.46 1.72-.3.55-.71 1.04-1.22 1.45-.51.42-1.06.73-1.66.93L30.64 88c.49.66.89 1.18 1.21 1.55.32.37.67.69 1.06.97s.84.48 1.36.62l.43.12-.27 1.19c-.59.19-1.25.28-2 .28-1.12 0-2.07-.3-2.84-.9-.77-.6-1.44-1.46-2.03-2.56l-1.47-2.73h-1.47v3.8l1.96.7-.14 1.4zm-1.83-13.28v5.59h2.08c.57-.24 1.03-.59 1.37-1.03.34-.44.52-.99.52-1.65 0-.55-.12-1.05-.37-1.5-.24-.45-.6-.8-1.06-1.06-.46-.26-1.01-.39-1.63-.39-.23 0-.43.01-.6.02-.18.01-.28.02-.31.02zM37.64 78.98l.18-1.31h12.86l-.37 4.38-1.53-.23-.74-2.59h-4.83v5.08H46l.52-1.53 1.71-.32-.4 5.03-1.65.27-.39-2h-2.57v4.88h5.09l1.45-2.68 1.47.18-.36 4.29h-13.1l.12-1.26 1.96-.75V79.64l-2.21-.66zM58.86 92.72c-1.07 0-2.02-.17-2.87-.5-.84-.33-1.45-.75-1.81-1.26l.27-3.73 1.66.25.47 2.22c.24.35.59.63 1.07.86.47.23.97.34 1.49.34.37 0 .72-.07 1.06-.22.33-.15.6-.36.8-.63.2-.28.3-.61.3-.98 0-.36-.12-.69-.36-.97s-.54-.53-.9-.74c-.36-.21-.86-.46-1.49-.77-.89-.43-1.62-.81-2.17-1.16-.55-.35-1.02-.81-1.42-1.39-.4-.58-.6-1.29-.6-2.12 0-.96.26-1.79.79-2.47a4.87 4.87 0 012.05-1.54c.84-.34 1.73-.52 2.68-.52.66 0 1.37.11 2.11.32.74.21 1.3.49 1.67.82 0 .08-.04.64-.13 1.68s-.15 1.76-.18 2.14l-1.61-.26-.38-1.97c-.19-.31-.5-.58-.94-.81-.44-.23-.88-.35-1.33-.35-.51 0-.93.15-1.24.44-.31.3-.47.72-.47 1.26 0 .39.13.73.39 1.04.26.3.59.57.97.79.39.23.93.5 1.63.82.93.44 1.69.85 2.27 1.21.58.36 1.07.84 1.49 1.42.42.59.62 1.29.62 2.11 0 1.01-.3 1.87-.91 2.57-.61.7-1.37 1.22-2.28 1.57-.92.36-1.81.53-2.7.53zM67.64 77.68h14.08l-.39 4.66-1.65-.27-.61-2.82h-2.89v11.28l2.29.53-.18 1.38h-7.57l.12-1.27 2.05-.69V79.24h-2.81l-.83 3.13-1.55-.23-.06-4.46zM84.62 92.44l.17-1.26 1.83-.94 4.91-12.29 2.94-.57 4.63 12.91 1.7.82-.13 1.34H93.3l.17-1.26 2.01-.94-.88-2.47h-4.8l-.88 2.49 2.22.81-.15 1.35h-6.37v.01zm5.81-6.51H94l-1.73-5.17-1.84 5.17zM105.94 79.71l-2.22-.69.25-1.34h7.49l-.18 1.34-1.99.63v6.55c0 1.44.34 2.51 1.02 3.2.68.69 1.61 1.04 2.8 1.04 1.09 0 1.94-.33 2.55-1 .61-.66.91-1.68.91-3.05l.01-6.68-2.12-.69.17-1.34h6.31l-.17 1.34-1.97.63-.05 6.38c-.02 2.28-.57 3.97-1.63 5.07s-2.66 1.65-4.79 1.65c-1.15 0-2.18-.14-3.1-.42-.92-.28-1.7-.85-2.34-1.73-.64-.88-.96-2.15-.96-3.82v-7.07h.01zM131.27 92.44h-7.46l.18-1.26 2.11-.75V80l-2.15-.45.13-1.41c.94-.15 2.05-.28 3.32-.4s2.33-.18 3.16-.18c2.12 0 3.72.3 4.82.9 1.09.6 1.64 1.6 1.64 3 0 .59-.15 1.17-.46 1.72-.3.55-.71 1.04-1.22 1.45-.51.42-1.06.73-1.66.93l1.79 2.44c.49.66.89 1.18 1.21 1.55.32.37.67.69 1.06.97s.84.48 1.36.62l.43.12-.27 1.19c-.59.19-1.25.28-2 .28-1.12 0-2.07-.3-2.84-.9-.77-.6-1.44-1.46-2.03-2.56l-1.47-2.73h-1.47v3.8l1.96.7-.14 1.4zm-1.83-13.28v5.59h2.08c.57-.24 1.03-.59 1.37-1.03.34-.44.52-.99.52-1.65 0-.55-.12-1.05-.37-1.5-.24-.45-.6-.8-1.06-1.06-.46-.26-1.01-.39-1.63-.39-.23 0-.43.01-.6.02-.18.01-.28.02-.31.02zM142.46 92.44l.17-1.26 1.83-.94 4.91-12.29 2.94-.57 4.63 12.91 1.7.82-.13 1.34h-7.36l.17-1.26 2-.94-.88-2.47h-4.8l-.88 2.49 2.22.81-.15 1.35h-6.37v.01zm5.82-6.51h3.57l-1.73-5.17-1.84 5.17zM161.69 79.05l.15-1.38h4.69l6.96 9.99V79.7l-2.21-.69.21-1.34h6.24l-.24 1.34-1.98.63v12.69l-2.59.45-6.98-9.73v7.45l2.15.57-.14 1.35h-6.26l.12-1.26 1.99-.75V79.84l-2.11-.79zM180.61 77.68h14.08l-.39 4.66-1.65-.27-.61-2.82h-2.89v11.28l2.29.53-.18 1.38h-7.57l.12-1.27 2.05-.69V79.24h-2.81l-.83 3.13-1.55-.23-.06-4.46z" fill="#7B7B7B"/></svg>