<svg width="213" height="167" fill="none" xmlns="http://www.w3.org/2000/svg"><path d="M104.24 153.59h-.035a67.599 67.599 0 01-4.638-.309.96.96 0 01-.86-1.056.956.956 0 011.049-.866c1.494.154 3.001.249 4.508.296a.948.948 0 01.918.997.946.946 0 01-.942.938zm4.579 0a.971.971 0 01-.954-.926.972.972 0 01.918-.997 70.492 70.492 0 004.509-.297c.529-.059.988.333 1.047.867a.974.974 0 01-.859 1.056c-1.53.154-3.096.261-4.638.309 0-.012-.011-.012-.023-.012zm-13.701-.902c-.047 0-.106 0-.153-.012a75.497 75.497 0 01-4.555-.926.954.954 0 01-.707-1.151.937.937 0 011.142-.712c1.46.344 2.955.653 4.426.902a.964.964 0 01.788 1.104.961.961 0 01-.941.795zm22.811-.012a.959.959 0 01-.941-.807c-.083-.522.259-1.021.776-1.104a69.36 69.36 0 004.426-.902.969.969 0 011.154.712.982.982 0 01-.707 1.163 67.048 67.048 0 01-4.555.926c-.047 0-.094.012-.153.012zm-31.721-2.113a.776.776 0 01-.283-.047 74.3 74.3 0 01-4.402-1.531.952.952 0 01-.542-1.246.955.955 0 011.236-.558c1.401.546 2.849 1.045 4.273 1.496.506.154.789.7.624 1.198a.964.964 0 01-.906.688zm40.643-.023a.933.933 0 01-.906-.677.961.961 0 01.624-1.198 67.264 67.264 0 004.272-1.496.959.959 0 011.236.546.97.97 0 01-.541 1.246 71.318 71.318 0 01-4.39 1.543c-.106.012-.201.036-.295.036zm-49.212-3.299a.829.829 0 01-.4-.095 71.958 71.958 0 01-4.156-2.113.964.964 0 01-.376-1.305.949.949 0 011.294-.38 67.938 67.938 0 004.038 2.053.962.962 0 01.459 1.282.942.942 0 01-.86.558zm57.758-.024a.924.924 0 01-.86-.558.973.973 0 01.46-1.282 75.02 75.02 0 004.025-2.053.95.95 0 011.295.38.964.964 0 01-.377 1.305 67.757 67.757 0 01-4.143 2.113.996.996 0 01-.4.095zm8.015-4.451a.934.934 0 01-.8-.439.966.966 0 01.294-1.329 67.227 67.227 0 003.72-2.587.94.94 0 011.33.202.956.956 0 01-.2 1.341 70.497 70.497 0 01-3.826 2.658.935.935 0 01-.518.154zm7.369-5.482a.953.953 0 01-.73-.344.956.956 0 01.118-1.353 68.037 68.037 0 003.354-3.062.958.958 0 011.354.024.975.975 0 01-.024 1.364 72.398 72.398 0 01-3.448 3.145.968.968 0 01-.624.226zM38.031 79.928h-.06a.964.964 0 01-.894-1.02c.106-1.555.26-3.122.46-4.665a.972.972 0 011.07-.83.969.969 0 01.824 1.08 72.011 72.011 0 00-.447 4.533.965.965 0 01-.953.902zm136.903-.25a.964.964 0 01-.953-.89 73.083 73.083 0 00-.459-4.533.96.96 0 01.812-1.08.949.949 0 011.071.82c.212 1.542.365 3.108.471 4.663a.955.955 0 01-.883 1.02h-.059zM39.22 70.767c-.06 0-.13-.012-.189-.024a.95.95 0 01-.741-1.127 65.69 65.69 0 011.07-4.557.95.95 0 011.166-.677.959.959 0 01.67 1.175 69.45 69.45 0 00-1.035 4.439.97.97 0 01-.942.771zm134.478-.237a.946.946 0 01-.93-.772 69.294 69.294 0 00-1.059-4.426.962.962 0 01.671-1.187.952.952 0 011.177.676 65.697 65.697 0 011.083 4.558.963.963 0 01-.742 1.139c-.07 0-.129.012-.2.012zM41.632 61.854a.871.871 0 01-.306-.048.965.965 0 01-.588-1.222 72.742 72.742 0 011.671-4.38.954.954 0 011.248-.51.967.967 0 01.506 1.258 68.873 68.873 0 00-1.624 4.26.975.975 0 01-.907.642zm129.63-.238a.949.949 0 01-.895-.64 68.4 68.4 0 00-1.636-4.237.957.957 0 01.506-1.258.944.944 0 011.248.51 78.06 78.06 0 011.683 4.367.955.955 0 01-.589 1.223 1.445 1.445 0 01-.317.035zM45.199 53.333a.969.969 0 01-.847-1.4 69.377 69.377 0 012.236-4.119.942.942 0 011.306-.332c.46.273.6.855.33 1.317a72.753 72.753 0 00-2.178 4 .927.927 0 01-.847.534zm122.473-.19a.937.937 0 01-.848-.522 77.29 77.29 0 00-2.177-3.988.97.97 0 01.329-1.317.953.953 0 011.307.332 81.716 81.716 0 012.248 4.094.975.975 0 01-.412 1.294 1.07 1.07 0 01-.447.107zm-117.8-7.761c-.188 0-.377-.06-.542-.167a.973.973 0 01-.247-1.34 71.706 71.706 0 012.755-3.775.95.95 0 011.341-.154.968.968 0 01.153 1.353 67.782 67.782 0 00-2.683 3.667.943.943 0 01-.777.416zm113.115-.178a.95.95 0 01-.789-.416 68.241 68.241 0 00-2.695-3.667.967.967 0 01.153-1.353.95.95 0 011.342.154 73.748 73.748 0 012.766 3.762.976.976 0 01-.247 1.342.798.798 0 01-.53.177zM55.545 38.118a.963.963 0 01-.706-1.602 72.286 72.286 0 013.225-3.37.957.957 0 011.354.023.977.977 0 01-.024 1.365 74.732 74.732 0 00-3.142 3.275.968.968 0 01-.707.309zm101.745-.143a.937.937 0 01-.706-.32 75.317 75.317 0 00-3.155-3.276.977.977 0 01-.023-1.364.956.956 0 011.353-.024 72.161 72.161 0 013.237 3.358.953.953 0 01-.07 1.353.862.862 0 01-.636.273zm-95.165-6.29a.952.952 0 01-.73-.344.965.965 0 01.106-1.353 71.091 71.091 0 013.637-2.907.939.939 0 011.33.201.957.957 0 01-.2 1.341 67.634 67.634 0 00-3.543 2.837.861.861 0 01-.6.225zm88.562-.13a.93.93 0 01-.612-.226 69.226 69.226 0 00-3.555-2.824.956.956 0 01-.2-1.341.939.939 0 011.33-.202 72.42 72.42 0 013.649 2.896c.4.344.459.95.117 1.353a.898.898 0 01-.729.344zm-81.194-5.364a.934.934 0 01-.8-.44.973.973 0 01.282-1.329 64.645 64.645 0 013.99-2.397.949.949 0 011.295.38.965.965 0 01-.376 1.305 74.817 74.817 0 00-3.885 2.326.876.876 0 01-.506.155zm73.814-.107a.878.878 0 01-.507-.154 71.604 71.604 0 00-3.896-2.326.962.962 0 01-.376-1.306.945.945 0 011.294-.38 75.352 75.352 0 014.002 2.386.966.966 0 01.295 1.329.954.954 0 01-.812.45zM77.509 21.74a.922.922 0 01-.86-.557.972.972 0 01.46-1.282c1.4-.653 2.837-1.27 4.273-1.84a.959.959 0 011.236.546.972.972 0 01-.542 1.246c-1.4.546-2.79 1.14-4.155 1.78a.766.766 0 01-.412.107zm57.746-.095a.828.828 0 01-.4-.095 67.446 67.446 0 00-4.167-1.78.968.968 0 01-.553-1.246.955.955 0 011.236-.557 68.437 68.437 0 014.285 1.827.953.953 0 01.459 1.27.91.91 0 01-.86.581zm-49.212-3.24a.944.944 0 01-.907-.676.962.962 0 01.624-1.198 71.58 71.58 0 014.485-1.247.958.958 0 011.153.713.972.972 0 01-.706 1.162c-1.46.357-2.919.76-4.355 1.211-.094.024-.2.036-.294.036zm40.655-.07a.783.783 0 01-.282-.048 70.055 70.055 0 00-4.367-1.199.945.945 0 01-.706-1.15.96.96 0 011.141-.713c1.495.356 3.014.771 4.485 1.222a.96.96 0 01.636 1.2.952.952 0 01-.907.687zm-31.745-2.077a.96.96 0 01-.942-.796c-.082-.522.26-1.02.777-1.103a65.997 65.997 0 014.603-.63.954.954 0 011.047.855.967.967 0 01-.847 1.056 71.326 71.326 0 00-4.485.606c-.047.012-.094.012-.153.012zm22.823-.036c-.047 0-.106 0-.153-.012a63.563 63.563 0 00-4.484-.593.957.957 0 01-.86-1.045.961.961 0 011.036-.866c1.542.154 3.084.356 4.602.605a.965.965 0 01.789 1.104.94.94 0 01-.93.807zm-13.701-.89a.96.96 0 01-.953-.926.954.954 0 01.918-.997c1.53-.059 3.119-.059 4.649-.011.53.011.942.462.918.996a.945.945 0 01-.953.926h-.035a63.846 63.846 0 00-4.52.012h-.024z" fill="#7B7B7B"/><path d="M31.31 84.758c-.012-.415-.012-.83-.012-1.258 0-41.797 33.734-75.81 75.19-75.81 41.456 0 75.191 34.013 75.191 75.81a74.05 74.05 0 01-.212 5.625c2.318.7 4.767 1.365 7.498 1.923.223-2.492.341-5.02.341-7.548 0-22.3-8.616-43.269-24.259-59.041C149.404 8.687 128.605 0 106.488 0 84.371 0 63.573 8.687 47.93 24.459 32.45 40.065 23.859 60.774 23.682 82.824a81.291 81.291 0 017.628 1.934zM163.87 132.43c-13.807 16.436-34.406 26.88-57.382 26.88-18.774 0-35.959-6.967-49.142-18.478-5.508-.748-9.875-1.899-13.89-3.169a86.833 86.833 0 004.474 4.878C63.573 158.313 84.37 167 106.488 167c22.117 0 42.916-8.687 58.559-24.459a85.756 85.756 0 006.803-7.75c-2.507-.842-5.096-1.649-7.98-2.361z" fill="#7B7B7B"/><path d="M209.186 145.603c-17.75 0-26.754-3.109-35.464-6.112-8.499-2.931-16.514-5.696-32.993-5.696-16.479 0-24.507 2.765-32.993 5.696-8.71 3.003-17.715 6.112-35.465 6.112-17.75 0-26.754-3.109-35.464-6.112-8.499-2.931-16.515-5.696-32.993-5.696-2.107 0-3.814-1.721-3.814-3.845V81.067c0-2.124 1.707-3.845 3.814-3.845 17.75 0 26.754 3.11 35.464 6.112 8.499 2.931 16.514 5.696 32.993 5.696 16.479 0 24.507-2.765 32.993-5.696 8.71-3.002 17.715-6.112 35.465-6.112 17.75 0 26.754 3.11 35.464 6.112 8.499 2.931 16.515 5.696 32.993 5.696 2.107 0 3.814 1.721 3.814 3.845v48.883c0 2.112-1.707 3.845-3.814 3.845zM7.604 126.152c15.266.415 23.588 3.275 31.65 6.064 8.5 2.932 16.515 5.697 32.994 5.697 16.478 0 24.506-2.765 32.993-5.697 8.71-3.002 17.714-6.111 35.464-6.111s26.755 3.109 35.465 6.111c7.816 2.694 15.219 5.258 29.191 5.649V96.673c-15.278-.415-23.588-3.275-31.651-6.064-8.498-2.931-16.514-5.697-32.993-5.697-16.479 0-24.506 2.765-32.993 5.697-8.71 3.002-17.715 6.112-35.465 6.112-17.75 0-26.754-3.11-35.464-6.112-7.816-2.694-15.22-5.258-29.18-5.65v41.193h-.011z" fill="#7B7B7B"/><path d="M70.847 67.206l4.732-2.6 2.495 4.617-15.184 8.355-2.495-4.616 4.696-2.588-6.014-11.12-3.026 4.961-2.695-4.984 4.661-7.595 3.378-1.864 9.452 17.434zM80.605 65.414c-2.142-1.733-3.72-4.628-4.755-8.687-1.013-3.987-1.001-7.251.058-9.803 1.048-2.54 3.073-4.2 6.05-4.972 2.99-.771 5.544-.297 7.675 1.424 2.13 1.72 3.708 4.569 4.732 8.568 1.035 4.06 1.024 7.358-.024 9.922-1.047 2.551-3.06 4.213-6.05 4.984-2.99.771-5.556.285-7.686-1.436zm8.333-5.791c.165-1.318-.094-3.347-.788-6.088-.683-2.67-1.4-4.534-2.178-5.59-.777-1.068-1.706-1.448-2.79-1.175-1.082.285-1.718 1.08-1.883 2.386-.176 1.305.083 3.299.754 5.957.694 2.741 1.436 4.64 2.213 5.72.776 1.068 1.706 1.472 2.8 1.187 1.084-.273 1.708-1.068 1.872-2.397zM101.297 60.964c-1.647-2.208-2.483-5.4-2.495-9.59-.012-4.117.8-7.274 2.437-9.482 1.636-2.207 4.002-3.31 7.074-3.323 3.084-.011 5.449 1.08 7.097 3.276 1.648 2.195 2.484 5.352 2.496 9.47.011 4.19-.801 7.394-2.437 9.613-1.636 2.22-4.002 3.335-7.074 3.335-3.084.011-5.45-1.092-7.098-3.3zm9.487-3.537c.483-1.234.73-3.264.719-6.088-.012-2.753-.259-4.735-.754-5.958-.494-1.222-1.306-1.827-2.425-1.827-1.118 0-1.918.617-2.413 1.84-.482 1.222-.729 3.215-.718 5.969.012 2.824.259 4.854.754 6.088.494 1.234 1.295 1.851 2.425 1.851 1.13-.024 1.93-.64 2.412-1.875zM124.662 52.027c-.718-1.637-.694-3.643.071-6.017.753-2.326 1.906-3.928 3.437-4.806 1.542-.878 3.295-.997 5.273-.344 1.977.653 3.319 1.792 4.037 3.43.718 1.637.706 3.62-.059 5.945-.765 2.374-1.93 4-3.46 4.878-1.542.878-3.296.997-5.273.344-1.954-.64-3.308-1.792-4.026-3.43zm5.45 14.645l-5.062-1.673 21.541-19.333 5.026 1.662-21.505 19.344zm1.189-15.345c.388-.45.812-1.353 1.247-2.694.412-1.27.589-2.23.518-2.86-.07-.629-.341-1.02-.836-1.187-.482-.166-.941-.011-1.353.463-.412.475-.824 1.341-1.236 2.623-.424 1.317-.612 2.29-.553 2.896.059.617.329.997.824 1.163.529.19 1 .047 1.389-.404zm7.968 16.532c-.694-1.626-.659-3.632.106-6.005.754-2.326 1.895-3.928 3.414-4.819 1.518-.89 3.26-.996 5.238-.356 2.001.665 3.342 1.804 4.049 3.418.706 1.614.671 3.608-.095 5.946-.776 2.373-1.918 4-3.425 4.89-1.518.89-3.272.996-5.273.343-1.989-.652-3.319-1.791-4.014-3.417zm6.592-.736c.412-.463.824-1.353 1.259-2.67.412-1.27.589-2.232.518-2.86-.07-.63-.341-1.021-.836-1.187-.482-.166-.941 0-1.353.463-.412.474-.824 1.34-1.236 2.622-.424 1.318-.612 2.29-.553 2.896.059.617.329.997.824 1.163.506.178.965.024 1.377-.427zM34.617 108.755l-1.754 7.761a12.26 12.26 0 01-2.942.237 15.534 15.534 0 01-3.19-.415c-1.671-.38-3.049-1.033-4.132-1.958a6.848 6.848 0 01-2.212-3.406c-.389-1.353-.4-2.837-.036-4.474.365-1.591 1-2.92 1.943-3.964a7.015 7.015 0 013.425-2.124c1.353-.368 2.836-.368 4.449 0 1.106.249 2.119.641 3.037 1.151.918.51 1.636 1.103 2.13 1.744l-1.93 2.599c-.6-.629-1.2-1.115-1.813-1.483a7.015 7.015 0 00-2.036-.795c-1.366-.309-2.472-.155-3.32.463-.847.617-1.447 1.732-1.8 3.323-.377 1.649-.306 2.955.212 3.916.518.961 1.506 1.602 2.954 1.934.67.155 1.365.238 2.072.249l.647-2.871-2.672-.618.624-2.765 6.344 1.496zM36.854 119.269l4.92-15.083 3.955 1.317-3.873 11.856 6.32 2.1-1.047 3.216-10.275-3.406zM54.356 122.734c-1.047-1.293-1.436-3.062-1.188-5.305l1.012-9.126 4.025.451-1.035 9.281c-.13 1.139.023 2.041.47 2.705.436.665 1.13 1.045 2.06 1.152.918.106 1.672-.119 2.237-.677.565-.558.918-1.4 1.035-2.516l1.036-9.28 4.061.463-1.012 9.126c-.247 2.219-1.036 3.845-2.354 4.877-1.33 1.045-3.108 1.436-5.356 1.175-2.283-.261-3.943-1.032-4.99-2.326zM76.356 125.488l-.577-12.473-4.685.225-.153-3.382 13.56-.641.153 3.383-4.685.225.577 12.473-4.19.19zM91.045 124.158l-3.884-15.392 10.888-2.789.788 3.109-6.968 1.792.73 2.896 6.52-1.673.79 3.109-6.521 1.673.8 3.157 6.968-1.78.789 3.109-10.9 2.789zM111.773 101.266l3.755-1.127 4.508 15.214-2.942.89-9.405-6.563 2.566 8.628-3.708 1.115-4.508-15.214 2.907-.878 9.393 6.527-2.566-8.592zM132.654 113.857l-.341-15.878 10.994-.238.07 3.276-6.897.154.058 2.896 6.462-.143.071 3.252-6.462.142.141 6.444-4.096.095zM160.88 115.222l-4.379-.498-1.436-5.483c-.164-.617-.682-.973-1.553-1.08l-1.495-.166-.695 6.135-4.061-.463 1.778-15.772 7.274.831c1.895.214 3.26.784 4.12 1.721.859.926 1.2 2.148 1.036 3.679-.118 1.068-.507 1.946-1.154 2.658-.647.712-1.507 1.175-2.566 1.377.424.142.8.392 1.118.759.318.368.542.831.683 1.401l1.33 4.901zm-3.99-10.23c.424-.225.671-.629.741-1.21.071-.605-.082-1.068-.435-1.377-.353-.308-.989-.522-1.883-.617l-2.59-.297-.377 3.394 2.59.297c.883.095 1.53.036 1.954-.19zM164.388 116.184l4.696-15.155 10.723 3.382-.953 3.062-6.863-2.16-.882 2.848 6.415 2.018-.954 3.062-6.415-2.018-.965 3.109 6.862 2.16-.953 3.062-10.711-3.37zM179.666 121.369l3.978-15.356 10.864 2.872-.8 3.109-6.956-1.84-.754 2.896 6.509 1.721-.8 3.109-6.509-1.721-.812 3.145 6.956 1.84-.8 3.109-10.876-2.884z" fill="#7B7B7B"/></svg>